G75*
%MOIN*%
%OFA0B0*%
%FSLAX25Y25*%
%IPPOS*%
%LPD*%
%AMOC8*
5,1,8,0,0,1.08239X$1,22.5*
%
%ADD10C,0.13398*%
%ADD11C,0.06000*%
%ADD12R,0.07099X0.07887*%
%ADD13C,0.06800*%
%ADD14R,0.05918X0.06706*%
%ADD15R,0.11824X0.06312*%
%ADD16R,0.05524X0.06312*%
%ADD17R,0.06706X0.04737*%
%ADD18R,0.09600X0.05700*%
%ADD19R,0.07887X0.07099*%
%ADD20R,0.08200X0.08200*%
%ADD21C,0.08200*%
%ADD22R,0.08800X0.08800*%
%ADD23C,0.08800*%
%ADD24C,0.03778*%
D10*
X0021185Y0022860D03*
X0021185Y0097663D03*
X0192445Y0099238D03*
D11*
X0082724Y0093884D02*
X0077524Y0093884D01*
X0047524Y0093884D02*
X0042324Y0093884D01*
X0042324Y0083884D02*
X0047524Y0083884D01*
X0047524Y0073884D02*
X0042324Y0073884D01*
X0077524Y0073884D02*
X0082724Y0073884D01*
X0082724Y0056482D02*
X0077524Y0056482D01*
X0077524Y0046482D02*
X0082724Y0046482D01*
X0082724Y0036482D02*
X0077524Y0036482D01*
X0047524Y0036482D02*
X0042324Y0036482D01*
X0042324Y0046482D02*
X0047524Y0046482D01*
X0047524Y0056482D02*
X0042324Y0056482D01*
D12*
X0094413Y0034671D03*
X0105437Y0034671D03*
X0182996Y0030734D03*
X0194020Y0030734D03*
X0194020Y0018923D03*
X0182996Y0018923D03*
X0182996Y0042545D03*
X0194020Y0042545D03*
X0194020Y0054356D03*
X0182996Y0054356D03*
D13*
X0134264Y0071915D02*
X0128264Y0071915D01*
X0128264Y0081915D02*
X0134264Y0081915D01*
X0134264Y0091915D02*
X0128264Y0091915D01*
D14*
X0026894Y0081915D03*
X0019413Y0081915D03*
X0043035Y0020892D03*
X0050516Y0020892D03*
X0074531Y0020892D03*
X0082012Y0020892D03*
X0096185Y0020892D03*
X0103665Y0020892D03*
D15*
X0099925Y0065380D03*
D16*
X0095594Y0055143D03*
X0104256Y0055143D03*
D17*
X0107799Y0045301D03*
X0092051Y0045301D03*
D18*
X0121995Y0040734D03*
X0156595Y0040734D03*
X0156595Y0020734D03*
X0121995Y0020734D03*
D19*
X0168823Y0025222D03*
X0168823Y0036246D03*
D20*
X0021185Y0070104D03*
D21*
X0021185Y0060104D03*
X0021185Y0050104D03*
X0021185Y0040104D03*
D22*
X0229846Y0024829D03*
X0229846Y0076010D03*
D23*
X0229846Y0095695D03*
X0229846Y0044514D03*
D24*
X0043035Y0020892D03*
M02*
