%
M48
M72
T01C0.0138
T02C0.0320
T03C0.0400
T04C0.0512
T05C0.1260
%
T01
X4304Y2089
T02
X4752Y3648
X4752Y4648
X4752Y5648
X7752Y5648
X7752Y4648
X7752Y3648
X7752Y7388
X4752Y7388
X4752Y8388
X4752Y9388
X7752Y9388
T03
X13126Y9192
X13126Y8192
X13126Y7192
X2119Y7010
X2119Y6010
X2119Y5010
X2119Y4010
T04
X22985Y4451
X22985Y2483
X22985Y7601
X22985Y9569
T05
X19244Y9924
X2119Y9766
X2119Y2286
M30
