G75*
%MOIN*%
%OFA0B0*%
%FSLAX25Y25*%
%IPPOS*%
%LPD*%
%AMOC8*
5,1,8,0,0,1.08239X$1,22.5*
%
%ADD10C,0.01000*%
%ADD11C,0.00000*%
%ADD12R,0.00080X0.00080*%
%ADD13C,0.00300*%
%ADD14C,0.00600*%
%ADD15C,0.00800*%
%ADD16C,0.02000*%
%ADD17R,0.02500X0.42000*%
%ADD18R,0.02500X0.07500*%
%ADD19R,0.02500X0.03000*%
%ADD20C,0.00700*%
%ADD21C,0.00500*%
%ADD22R,0.00787X0.05512*%
%ADD23C,0.00100*%
D10*
X0105572Y0034277D02*
X0105574Y0034371D01*
X0105580Y0034465D01*
X0105590Y0034558D01*
X0105604Y0034651D01*
X0105621Y0034743D01*
X0105643Y0034834D01*
X0105668Y0034925D01*
X0105698Y0035014D01*
X0105730Y0035102D01*
X0105767Y0035189D01*
X0105807Y0035273D01*
X0105851Y0035356D01*
X0105898Y0035438D01*
X0105949Y0035517D01*
X0106003Y0035594D01*
X0106060Y0035668D01*
X0106120Y0035740D01*
X0106183Y0035810D01*
X0106249Y0035876D01*
X0106318Y0035940D01*
X0106390Y0036001D01*
X0106464Y0036059D01*
X0106540Y0036114D01*
X0106618Y0036165D01*
X0106699Y0036213D01*
X0106782Y0036258D01*
X0106866Y0036299D01*
X0106952Y0036337D01*
X0107040Y0036371D01*
X0107129Y0036401D01*
X0107219Y0036427D01*
X0107310Y0036450D01*
X0107402Y0036468D01*
X0107495Y0036483D01*
X0107588Y0036494D01*
X0107682Y0036501D01*
X0107776Y0036504D01*
X0107869Y0036503D01*
X0107963Y0036498D01*
X0108057Y0036489D01*
X0108150Y0036476D01*
X0108242Y0036459D01*
X0108334Y0036439D01*
X0108424Y0036414D01*
X0108514Y0036386D01*
X0108602Y0036354D01*
X0108689Y0036318D01*
X0108774Y0036279D01*
X0108858Y0036236D01*
X0108939Y0036190D01*
X0109019Y0036140D01*
X0109097Y0036087D01*
X0109172Y0036031D01*
X0109244Y0035971D01*
X0109315Y0035909D01*
X0109382Y0035843D01*
X0109447Y0035775D01*
X0109508Y0035704D01*
X0109567Y0035631D01*
X0109623Y0035555D01*
X0109675Y0035477D01*
X0109724Y0035397D01*
X0109769Y0035315D01*
X0109811Y0035231D01*
X0109850Y0035145D01*
X0109884Y0035058D01*
X0109916Y0034970D01*
X0109943Y0034880D01*
X0109966Y0034789D01*
X0109986Y0034697D01*
X0110002Y0034604D01*
X0110014Y0034511D01*
X0110022Y0034418D01*
X0110026Y0034324D01*
X0110026Y0034230D01*
X0110022Y0034136D01*
X0110014Y0034043D01*
X0110002Y0033950D01*
X0109986Y0033857D01*
X0109966Y0033765D01*
X0109943Y0033674D01*
X0109916Y0033584D01*
X0109884Y0033496D01*
X0109850Y0033409D01*
X0109811Y0033323D01*
X0109769Y0033239D01*
X0109724Y0033157D01*
X0109675Y0033077D01*
X0109623Y0032999D01*
X0109567Y0032923D01*
X0109508Y0032850D01*
X0109447Y0032779D01*
X0109382Y0032711D01*
X0109315Y0032645D01*
X0109244Y0032583D01*
X0109172Y0032523D01*
X0109097Y0032467D01*
X0109019Y0032414D01*
X0108939Y0032364D01*
X0108858Y0032318D01*
X0108774Y0032275D01*
X0108689Y0032236D01*
X0108602Y0032200D01*
X0108514Y0032168D01*
X0108424Y0032140D01*
X0108334Y0032115D01*
X0108242Y0032095D01*
X0108150Y0032078D01*
X0108057Y0032065D01*
X0107963Y0032056D01*
X0107869Y0032051D01*
X0107776Y0032050D01*
X0107682Y0032053D01*
X0107588Y0032060D01*
X0107495Y0032071D01*
X0107402Y0032086D01*
X0107310Y0032104D01*
X0107219Y0032127D01*
X0107129Y0032153D01*
X0107040Y0032183D01*
X0106952Y0032217D01*
X0106866Y0032255D01*
X0106782Y0032296D01*
X0106699Y0032341D01*
X0106618Y0032389D01*
X0106540Y0032440D01*
X0106464Y0032495D01*
X0106390Y0032553D01*
X0106318Y0032614D01*
X0106249Y0032678D01*
X0106183Y0032744D01*
X0106120Y0032814D01*
X0106060Y0032886D01*
X0106003Y0032960D01*
X0105949Y0033037D01*
X0105898Y0033116D01*
X0105851Y0033198D01*
X0105807Y0033281D01*
X0105767Y0033365D01*
X0105730Y0033452D01*
X0105698Y0033540D01*
X0105668Y0033629D01*
X0105643Y0033720D01*
X0105621Y0033811D01*
X0105604Y0033903D01*
X0105590Y0033996D01*
X0105580Y0034089D01*
X0105574Y0034183D01*
X0105572Y0034277D01*
D11*
X0017248Y0011049D02*
X0237720Y0011049D01*
X0237910Y0011051D01*
X0238100Y0011058D01*
X0238290Y0011070D01*
X0238480Y0011086D01*
X0238669Y0011106D01*
X0238858Y0011132D01*
X0239046Y0011161D01*
X0239233Y0011196D01*
X0239419Y0011235D01*
X0239604Y0011278D01*
X0239789Y0011326D01*
X0239972Y0011378D01*
X0240153Y0011434D01*
X0240333Y0011495D01*
X0240512Y0011561D01*
X0240689Y0011630D01*
X0240865Y0011704D01*
X0241038Y0011782D01*
X0241210Y0011865D01*
X0241379Y0011951D01*
X0241547Y0012041D01*
X0241712Y0012136D01*
X0241875Y0012234D01*
X0242035Y0012337D01*
X0242193Y0012443D01*
X0242348Y0012553D01*
X0242501Y0012666D01*
X0242651Y0012784D01*
X0242797Y0012905D01*
X0242941Y0013029D01*
X0243082Y0013157D01*
X0243220Y0013288D01*
X0243355Y0013423D01*
X0243486Y0013561D01*
X0243614Y0013702D01*
X0243738Y0013846D01*
X0243859Y0013992D01*
X0243977Y0014142D01*
X0244090Y0014295D01*
X0244200Y0014450D01*
X0244306Y0014608D01*
X0244409Y0014768D01*
X0244507Y0014931D01*
X0244602Y0015096D01*
X0244692Y0015264D01*
X0244778Y0015433D01*
X0244861Y0015605D01*
X0244939Y0015778D01*
X0245013Y0015954D01*
X0245082Y0016131D01*
X0245148Y0016310D01*
X0245209Y0016490D01*
X0245265Y0016671D01*
X0245317Y0016854D01*
X0245365Y0017039D01*
X0245408Y0017224D01*
X0245447Y0017410D01*
X0245482Y0017597D01*
X0245511Y0017785D01*
X0245537Y0017974D01*
X0245557Y0018163D01*
X0245573Y0018353D01*
X0245585Y0018543D01*
X0245592Y0018733D01*
X0245594Y0018923D01*
X0245594Y0101600D01*
X0245592Y0101790D01*
X0245585Y0101980D01*
X0245573Y0102170D01*
X0245557Y0102360D01*
X0245537Y0102549D01*
X0245511Y0102738D01*
X0245482Y0102926D01*
X0245447Y0103113D01*
X0245408Y0103299D01*
X0245365Y0103484D01*
X0245317Y0103669D01*
X0245265Y0103852D01*
X0245209Y0104033D01*
X0245148Y0104213D01*
X0245082Y0104392D01*
X0245013Y0104569D01*
X0244939Y0104745D01*
X0244861Y0104918D01*
X0244778Y0105090D01*
X0244692Y0105259D01*
X0244602Y0105427D01*
X0244507Y0105592D01*
X0244409Y0105755D01*
X0244306Y0105915D01*
X0244200Y0106073D01*
X0244090Y0106228D01*
X0243977Y0106381D01*
X0243859Y0106531D01*
X0243738Y0106677D01*
X0243614Y0106821D01*
X0243486Y0106962D01*
X0243355Y0107100D01*
X0243220Y0107235D01*
X0243082Y0107366D01*
X0242941Y0107494D01*
X0242797Y0107618D01*
X0242651Y0107739D01*
X0242501Y0107857D01*
X0242348Y0107970D01*
X0242193Y0108080D01*
X0242035Y0108186D01*
X0241875Y0108289D01*
X0241712Y0108387D01*
X0241547Y0108482D01*
X0241379Y0108572D01*
X0241210Y0108658D01*
X0241038Y0108741D01*
X0240865Y0108819D01*
X0240689Y0108893D01*
X0240512Y0108962D01*
X0240333Y0109028D01*
X0240153Y0109089D01*
X0239972Y0109145D01*
X0239789Y0109197D01*
X0239604Y0109245D01*
X0239419Y0109288D01*
X0239233Y0109327D01*
X0239046Y0109362D01*
X0238858Y0109391D01*
X0238669Y0109417D01*
X0238480Y0109437D01*
X0238290Y0109453D01*
X0238100Y0109465D01*
X0237910Y0109472D01*
X0237720Y0109474D01*
X0017248Y0109474D01*
X0017058Y0109472D01*
X0016868Y0109465D01*
X0016678Y0109453D01*
X0016488Y0109437D01*
X0016299Y0109417D01*
X0016110Y0109391D01*
X0015922Y0109362D01*
X0015735Y0109327D01*
X0015549Y0109288D01*
X0015364Y0109245D01*
X0015179Y0109197D01*
X0014996Y0109145D01*
X0014815Y0109089D01*
X0014635Y0109028D01*
X0014456Y0108962D01*
X0014279Y0108893D01*
X0014103Y0108819D01*
X0013930Y0108741D01*
X0013758Y0108658D01*
X0013589Y0108572D01*
X0013421Y0108482D01*
X0013256Y0108387D01*
X0013093Y0108289D01*
X0012933Y0108186D01*
X0012775Y0108080D01*
X0012620Y0107970D01*
X0012467Y0107857D01*
X0012317Y0107739D01*
X0012171Y0107618D01*
X0012027Y0107494D01*
X0011886Y0107366D01*
X0011748Y0107235D01*
X0011613Y0107100D01*
X0011482Y0106962D01*
X0011354Y0106821D01*
X0011230Y0106677D01*
X0011109Y0106531D01*
X0010991Y0106381D01*
X0010878Y0106228D01*
X0010768Y0106073D01*
X0010662Y0105915D01*
X0010559Y0105755D01*
X0010461Y0105592D01*
X0010366Y0105427D01*
X0010276Y0105259D01*
X0010190Y0105090D01*
X0010107Y0104918D01*
X0010029Y0104745D01*
X0009955Y0104569D01*
X0009886Y0104392D01*
X0009820Y0104213D01*
X0009759Y0104033D01*
X0009703Y0103852D01*
X0009651Y0103669D01*
X0009603Y0103484D01*
X0009560Y0103299D01*
X0009521Y0103113D01*
X0009486Y0102926D01*
X0009457Y0102738D01*
X0009431Y0102549D01*
X0009411Y0102360D01*
X0009395Y0102170D01*
X0009383Y0101980D01*
X0009376Y0101790D01*
X0009374Y0101600D01*
X0009374Y0018923D01*
X0009376Y0018733D01*
X0009383Y0018543D01*
X0009395Y0018353D01*
X0009411Y0018163D01*
X0009431Y0017974D01*
X0009457Y0017785D01*
X0009486Y0017597D01*
X0009521Y0017410D01*
X0009560Y0017224D01*
X0009603Y0017039D01*
X0009651Y0016854D01*
X0009703Y0016671D01*
X0009759Y0016490D01*
X0009820Y0016310D01*
X0009886Y0016131D01*
X0009955Y0015954D01*
X0010029Y0015778D01*
X0010107Y0015605D01*
X0010190Y0015433D01*
X0010276Y0015264D01*
X0010366Y0015096D01*
X0010461Y0014931D01*
X0010559Y0014768D01*
X0010662Y0014608D01*
X0010768Y0014450D01*
X0010878Y0014295D01*
X0010991Y0014142D01*
X0011109Y0013992D01*
X0011230Y0013846D01*
X0011354Y0013702D01*
X0011482Y0013561D01*
X0011613Y0013423D01*
X0011748Y0013288D01*
X0011886Y0013157D01*
X0012027Y0013029D01*
X0012171Y0012905D01*
X0012317Y0012784D01*
X0012467Y0012666D01*
X0012620Y0012553D01*
X0012775Y0012443D01*
X0012933Y0012337D01*
X0013093Y0012234D01*
X0013256Y0012136D01*
X0013421Y0012041D01*
X0013589Y0011951D01*
X0013758Y0011865D01*
X0013930Y0011782D01*
X0014103Y0011704D01*
X0014279Y0011630D01*
X0014456Y0011561D01*
X0014635Y0011495D01*
X0014815Y0011434D01*
X0014996Y0011378D01*
X0015179Y0011326D01*
X0015364Y0011278D01*
X0015549Y0011235D01*
X0015735Y0011196D01*
X0015922Y0011161D01*
X0016110Y0011132D01*
X0016299Y0011106D01*
X0016488Y0011086D01*
X0016678Y0011070D01*
X0016868Y0011058D01*
X0017058Y0011051D01*
X0017248Y0011049D01*
X0014886Y0022860D02*
X0014888Y0023018D01*
X0014894Y0023176D01*
X0014904Y0023334D01*
X0014918Y0023492D01*
X0014936Y0023649D01*
X0014957Y0023806D01*
X0014983Y0023962D01*
X0015013Y0024118D01*
X0015046Y0024273D01*
X0015084Y0024426D01*
X0015125Y0024579D01*
X0015170Y0024731D01*
X0015219Y0024882D01*
X0015272Y0025031D01*
X0015328Y0025179D01*
X0015388Y0025325D01*
X0015452Y0025470D01*
X0015520Y0025613D01*
X0015591Y0025755D01*
X0015665Y0025895D01*
X0015743Y0026032D01*
X0015825Y0026168D01*
X0015909Y0026302D01*
X0015998Y0026433D01*
X0016089Y0026562D01*
X0016184Y0026689D01*
X0016281Y0026814D01*
X0016382Y0026936D01*
X0016486Y0027055D01*
X0016593Y0027172D01*
X0016703Y0027286D01*
X0016816Y0027397D01*
X0016931Y0027506D01*
X0017049Y0027611D01*
X0017170Y0027713D01*
X0017293Y0027813D01*
X0017419Y0027909D01*
X0017547Y0028002D01*
X0017677Y0028092D01*
X0017810Y0028178D01*
X0017945Y0028262D01*
X0018081Y0028341D01*
X0018220Y0028418D01*
X0018361Y0028490D01*
X0018503Y0028560D01*
X0018647Y0028625D01*
X0018793Y0028687D01*
X0018940Y0028745D01*
X0019089Y0028800D01*
X0019239Y0028851D01*
X0019390Y0028898D01*
X0019542Y0028941D01*
X0019695Y0028980D01*
X0019850Y0029016D01*
X0020005Y0029047D01*
X0020161Y0029075D01*
X0020317Y0029099D01*
X0020474Y0029119D01*
X0020632Y0029135D01*
X0020789Y0029147D01*
X0020948Y0029155D01*
X0021106Y0029159D01*
X0021264Y0029159D01*
X0021422Y0029155D01*
X0021581Y0029147D01*
X0021738Y0029135D01*
X0021896Y0029119D01*
X0022053Y0029099D01*
X0022209Y0029075D01*
X0022365Y0029047D01*
X0022520Y0029016D01*
X0022675Y0028980D01*
X0022828Y0028941D01*
X0022980Y0028898D01*
X0023131Y0028851D01*
X0023281Y0028800D01*
X0023430Y0028745D01*
X0023577Y0028687D01*
X0023723Y0028625D01*
X0023867Y0028560D01*
X0024009Y0028490D01*
X0024150Y0028418D01*
X0024289Y0028341D01*
X0024425Y0028262D01*
X0024560Y0028178D01*
X0024693Y0028092D01*
X0024823Y0028002D01*
X0024951Y0027909D01*
X0025077Y0027813D01*
X0025200Y0027713D01*
X0025321Y0027611D01*
X0025439Y0027506D01*
X0025554Y0027397D01*
X0025667Y0027286D01*
X0025777Y0027172D01*
X0025884Y0027055D01*
X0025988Y0026936D01*
X0026089Y0026814D01*
X0026186Y0026689D01*
X0026281Y0026562D01*
X0026372Y0026433D01*
X0026461Y0026302D01*
X0026545Y0026168D01*
X0026627Y0026032D01*
X0026705Y0025895D01*
X0026779Y0025755D01*
X0026850Y0025613D01*
X0026918Y0025470D01*
X0026982Y0025325D01*
X0027042Y0025179D01*
X0027098Y0025031D01*
X0027151Y0024882D01*
X0027200Y0024731D01*
X0027245Y0024579D01*
X0027286Y0024426D01*
X0027324Y0024273D01*
X0027357Y0024118D01*
X0027387Y0023962D01*
X0027413Y0023806D01*
X0027434Y0023649D01*
X0027452Y0023492D01*
X0027466Y0023334D01*
X0027476Y0023176D01*
X0027482Y0023018D01*
X0027484Y0022860D01*
X0027482Y0022702D01*
X0027476Y0022544D01*
X0027466Y0022386D01*
X0027452Y0022228D01*
X0027434Y0022071D01*
X0027413Y0021914D01*
X0027387Y0021758D01*
X0027357Y0021602D01*
X0027324Y0021447D01*
X0027286Y0021294D01*
X0027245Y0021141D01*
X0027200Y0020989D01*
X0027151Y0020838D01*
X0027098Y0020689D01*
X0027042Y0020541D01*
X0026982Y0020395D01*
X0026918Y0020250D01*
X0026850Y0020107D01*
X0026779Y0019965D01*
X0026705Y0019825D01*
X0026627Y0019688D01*
X0026545Y0019552D01*
X0026461Y0019418D01*
X0026372Y0019287D01*
X0026281Y0019158D01*
X0026186Y0019031D01*
X0026089Y0018906D01*
X0025988Y0018784D01*
X0025884Y0018665D01*
X0025777Y0018548D01*
X0025667Y0018434D01*
X0025554Y0018323D01*
X0025439Y0018214D01*
X0025321Y0018109D01*
X0025200Y0018007D01*
X0025077Y0017907D01*
X0024951Y0017811D01*
X0024823Y0017718D01*
X0024693Y0017628D01*
X0024560Y0017542D01*
X0024425Y0017458D01*
X0024289Y0017379D01*
X0024150Y0017302D01*
X0024009Y0017230D01*
X0023867Y0017160D01*
X0023723Y0017095D01*
X0023577Y0017033D01*
X0023430Y0016975D01*
X0023281Y0016920D01*
X0023131Y0016869D01*
X0022980Y0016822D01*
X0022828Y0016779D01*
X0022675Y0016740D01*
X0022520Y0016704D01*
X0022365Y0016673D01*
X0022209Y0016645D01*
X0022053Y0016621D01*
X0021896Y0016601D01*
X0021738Y0016585D01*
X0021581Y0016573D01*
X0021422Y0016565D01*
X0021264Y0016561D01*
X0021106Y0016561D01*
X0020948Y0016565D01*
X0020789Y0016573D01*
X0020632Y0016585D01*
X0020474Y0016601D01*
X0020317Y0016621D01*
X0020161Y0016645D01*
X0020005Y0016673D01*
X0019850Y0016704D01*
X0019695Y0016740D01*
X0019542Y0016779D01*
X0019390Y0016822D01*
X0019239Y0016869D01*
X0019089Y0016920D01*
X0018940Y0016975D01*
X0018793Y0017033D01*
X0018647Y0017095D01*
X0018503Y0017160D01*
X0018361Y0017230D01*
X0018220Y0017302D01*
X0018081Y0017379D01*
X0017945Y0017458D01*
X0017810Y0017542D01*
X0017677Y0017628D01*
X0017547Y0017718D01*
X0017419Y0017811D01*
X0017293Y0017907D01*
X0017170Y0018007D01*
X0017049Y0018109D01*
X0016931Y0018214D01*
X0016816Y0018323D01*
X0016703Y0018434D01*
X0016593Y0018548D01*
X0016486Y0018665D01*
X0016382Y0018784D01*
X0016281Y0018906D01*
X0016184Y0019031D01*
X0016089Y0019158D01*
X0015998Y0019287D01*
X0015909Y0019418D01*
X0015825Y0019552D01*
X0015743Y0019688D01*
X0015665Y0019825D01*
X0015591Y0019965D01*
X0015520Y0020107D01*
X0015452Y0020250D01*
X0015388Y0020395D01*
X0015328Y0020541D01*
X0015272Y0020689D01*
X0015219Y0020838D01*
X0015170Y0020989D01*
X0015125Y0021141D01*
X0015084Y0021294D01*
X0015046Y0021447D01*
X0015013Y0021602D01*
X0014983Y0021758D01*
X0014957Y0021914D01*
X0014936Y0022071D01*
X0014918Y0022228D01*
X0014904Y0022386D01*
X0014894Y0022544D01*
X0014888Y0022702D01*
X0014886Y0022860D01*
X0138095Y0047534D02*
X0138097Y0047465D01*
X0138103Y0047397D01*
X0138113Y0047329D01*
X0138126Y0047262D01*
X0138144Y0047196D01*
X0138165Y0047131D01*
X0138190Y0047067D01*
X0138218Y0047005D01*
X0138250Y0046944D01*
X0138285Y0046885D01*
X0138324Y0046829D01*
X0138366Y0046774D01*
X0138411Y0046723D01*
X0138459Y0046673D01*
X0138509Y0046627D01*
X0138562Y0046584D01*
X0138618Y0046543D01*
X0138675Y0046506D01*
X0138735Y0046473D01*
X0138797Y0046442D01*
X0138860Y0046416D01*
X0138924Y0046393D01*
X0138990Y0046373D01*
X0139057Y0046358D01*
X0139124Y0046346D01*
X0139192Y0046338D01*
X0139261Y0046334D01*
X0139329Y0046334D01*
X0139398Y0046338D01*
X0139466Y0046346D01*
X0139533Y0046358D01*
X0139600Y0046373D01*
X0139666Y0046393D01*
X0139730Y0046416D01*
X0139793Y0046442D01*
X0139855Y0046473D01*
X0139915Y0046506D01*
X0139972Y0046543D01*
X0140028Y0046584D01*
X0140081Y0046627D01*
X0140131Y0046673D01*
X0140179Y0046723D01*
X0140224Y0046774D01*
X0140266Y0046829D01*
X0140305Y0046885D01*
X0140340Y0046944D01*
X0140372Y0047005D01*
X0140400Y0047067D01*
X0140425Y0047131D01*
X0140446Y0047196D01*
X0140464Y0047262D01*
X0140477Y0047329D01*
X0140487Y0047397D01*
X0140493Y0047465D01*
X0140495Y0047534D01*
X0186146Y0099238D02*
X0186148Y0099396D01*
X0186154Y0099554D01*
X0186164Y0099712D01*
X0186178Y0099870D01*
X0186196Y0100027D01*
X0186217Y0100184D01*
X0186243Y0100340D01*
X0186273Y0100496D01*
X0186306Y0100651D01*
X0186344Y0100804D01*
X0186385Y0100957D01*
X0186430Y0101109D01*
X0186479Y0101260D01*
X0186532Y0101409D01*
X0186588Y0101557D01*
X0186648Y0101703D01*
X0186712Y0101848D01*
X0186780Y0101991D01*
X0186851Y0102133D01*
X0186925Y0102273D01*
X0187003Y0102410D01*
X0187085Y0102546D01*
X0187169Y0102680D01*
X0187258Y0102811D01*
X0187349Y0102940D01*
X0187444Y0103067D01*
X0187541Y0103192D01*
X0187642Y0103314D01*
X0187746Y0103433D01*
X0187853Y0103550D01*
X0187963Y0103664D01*
X0188076Y0103775D01*
X0188191Y0103884D01*
X0188309Y0103989D01*
X0188430Y0104091D01*
X0188553Y0104191D01*
X0188679Y0104287D01*
X0188807Y0104380D01*
X0188937Y0104470D01*
X0189070Y0104556D01*
X0189205Y0104640D01*
X0189341Y0104719D01*
X0189480Y0104796D01*
X0189621Y0104868D01*
X0189763Y0104938D01*
X0189907Y0105003D01*
X0190053Y0105065D01*
X0190200Y0105123D01*
X0190349Y0105178D01*
X0190499Y0105229D01*
X0190650Y0105276D01*
X0190802Y0105319D01*
X0190955Y0105358D01*
X0191110Y0105394D01*
X0191265Y0105425D01*
X0191421Y0105453D01*
X0191577Y0105477D01*
X0191734Y0105497D01*
X0191892Y0105513D01*
X0192049Y0105525D01*
X0192208Y0105533D01*
X0192366Y0105537D01*
X0192524Y0105537D01*
X0192682Y0105533D01*
X0192841Y0105525D01*
X0192998Y0105513D01*
X0193156Y0105497D01*
X0193313Y0105477D01*
X0193469Y0105453D01*
X0193625Y0105425D01*
X0193780Y0105394D01*
X0193935Y0105358D01*
X0194088Y0105319D01*
X0194240Y0105276D01*
X0194391Y0105229D01*
X0194541Y0105178D01*
X0194690Y0105123D01*
X0194837Y0105065D01*
X0194983Y0105003D01*
X0195127Y0104938D01*
X0195269Y0104868D01*
X0195410Y0104796D01*
X0195549Y0104719D01*
X0195685Y0104640D01*
X0195820Y0104556D01*
X0195953Y0104470D01*
X0196083Y0104380D01*
X0196211Y0104287D01*
X0196337Y0104191D01*
X0196460Y0104091D01*
X0196581Y0103989D01*
X0196699Y0103884D01*
X0196814Y0103775D01*
X0196927Y0103664D01*
X0197037Y0103550D01*
X0197144Y0103433D01*
X0197248Y0103314D01*
X0197349Y0103192D01*
X0197446Y0103067D01*
X0197541Y0102940D01*
X0197632Y0102811D01*
X0197721Y0102680D01*
X0197805Y0102546D01*
X0197887Y0102410D01*
X0197965Y0102273D01*
X0198039Y0102133D01*
X0198110Y0101991D01*
X0198178Y0101848D01*
X0198242Y0101703D01*
X0198302Y0101557D01*
X0198358Y0101409D01*
X0198411Y0101260D01*
X0198460Y0101109D01*
X0198505Y0100957D01*
X0198546Y0100804D01*
X0198584Y0100651D01*
X0198617Y0100496D01*
X0198647Y0100340D01*
X0198673Y0100184D01*
X0198694Y0100027D01*
X0198712Y0099870D01*
X0198726Y0099712D01*
X0198736Y0099554D01*
X0198742Y0099396D01*
X0198744Y0099238D01*
X0198742Y0099080D01*
X0198736Y0098922D01*
X0198726Y0098764D01*
X0198712Y0098606D01*
X0198694Y0098449D01*
X0198673Y0098292D01*
X0198647Y0098136D01*
X0198617Y0097980D01*
X0198584Y0097825D01*
X0198546Y0097672D01*
X0198505Y0097519D01*
X0198460Y0097367D01*
X0198411Y0097216D01*
X0198358Y0097067D01*
X0198302Y0096919D01*
X0198242Y0096773D01*
X0198178Y0096628D01*
X0198110Y0096485D01*
X0198039Y0096343D01*
X0197965Y0096203D01*
X0197887Y0096066D01*
X0197805Y0095930D01*
X0197721Y0095796D01*
X0197632Y0095665D01*
X0197541Y0095536D01*
X0197446Y0095409D01*
X0197349Y0095284D01*
X0197248Y0095162D01*
X0197144Y0095043D01*
X0197037Y0094926D01*
X0196927Y0094812D01*
X0196814Y0094701D01*
X0196699Y0094592D01*
X0196581Y0094487D01*
X0196460Y0094385D01*
X0196337Y0094285D01*
X0196211Y0094189D01*
X0196083Y0094096D01*
X0195953Y0094006D01*
X0195820Y0093920D01*
X0195685Y0093836D01*
X0195549Y0093757D01*
X0195410Y0093680D01*
X0195269Y0093608D01*
X0195127Y0093538D01*
X0194983Y0093473D01*
X0194837Y0093411D01*
X0194690Y0093353D01*
X0194541Y0093298D01*
X0194391Y0093247D01*
X0194240Y0093200D01*
X0194088Y0093157D01*
X0193935Y0093118D01*
X0193780Y0093082D01*
X0193625Y0093051D01*
X0193469Y0093023D01*
X0193313Y0092999D01*
X0193156Y0092979D01*
X0192998Y0092963D01*
X0192841Y0092951D01*
X0192682Y0092943D01*
X0192524Y0092939D01*
X0192366Y0092939D01*
X0192208Y0092943D01*
X0192049Y0092951D01*
X0191892Y0092963D01*
X0191734Y0092979D01*
X0191577Y0092999D01*
X0191421Y0093023D01*
X0191265Y0093051D01*
X0191110Y0093082D01*
X0190955Y0093118D01*
X0190802Y0093157D01*
X0190650Y0093200D01*
X0190499Y0093247D01*
X0190349Y0093298D01*
X0190200Y0093353D01*
X0190053Y0093411D01*
X0189907Y0093473D01*
X0189763Y0093538D01*
X0189621Y0093608D01*
X0189480Y0093680D01*
X0189341Y0093757D01*
X0189205Y0093836D01*
X0189070Y0093920D01*
X0188937Y0094006D01*
X0188807Y0094096D01*
X0188679Y0094189D01*
X0188553Y0094285D01*
X0188430Y0094385D01*
X0188309Y0094487D01*
X0188191Y0094592D01*
X0188076Y0094701D01*
X0187963Y0094812D01*
X0187853Y0094926D01*
X0187746Y0095043D01*
X0187642Y0095162D01*
X0187541Y0095284D01*
X0187444Y0095409D01*
X0187349Y0095536D01*
X0187258Y0095665D01*
X0187169Y0095796D01*
X0187085Y0095930D01*
X0187003Y0096066D01*
X0186925Y0096203D01*
X0186851Y0096343D01*
X0186780Y0096485D01*
X0186712Y0096628D01*
X0186648Y0096773D01*
X0186588Y0096919D01*
X0186532Y0097067D01*
X0186479Y0097216D01*
X0186430Y0097367D01*
X0186385Y0097519D01*
X0186344Y0097672D01*
X0186306Y0097825D01*
X0186273Y0097980D01*
X0186243Y0098136D01*
X0186217Y0098292D01*
X0186196Y0098449D01*
X0186178Y0098606D01*
X0186164Y0098764D01*
X0186154Y0098922D01*
X0186148Y0099080D01*
X0186146Y0099238D01*
X0014886Y0097663D02*
X0014888Y0097821D01*
X0014894Y0097979D01*
X0014904Y0098137D01*
X0014918Y0098295D01*
X0014936Y0098452D01*
X0014957Y0098609D01*
X0014983Y0098765D01*
X0015013Y0098921D01*
X0015046Y0099076D01*
X0015084Y0099229D01*
X0015125Y0099382D01*
X0015170Y0099534D01*
X0015219Y0099685D01*
X0015272Y0099834D01*
X0015328Y0099982D01*
X0015388Y0100128D01*
X0015452Y0100273D01*
X0015520Y0100416D01*
X0015591Y0100558D01*
X0015665Y0100698D01*
X0015743Y0100835D01*
X0015825Y0100971D01*
X0015909Y0101105D01*
X0015998Y0101236D01*
X0016089Y0101365D01*
X0016184Y0101492D01*
X0016281Y0101617D01*
X0016382Y0101739D01*
X0016486Y0101858D01*
X0016593Y0101975D01*
X0016703Y0102089D01*
X0016816Y0102200D01*
X0016931Y0102309D01*
X0017049Y0102414D01*
X0017170Y0102516D01*
X0017293Y0102616D01*
X0017419Y0102712D01*
X0017547Y0102805D01*
X0017677Y0102895D01*
X0017810Y0102981D01*
X0017945Y0103065D01*
X0018081Y0103144D01*
X0018220Y0103221D01*
X0018361Y0103293D01*
X0018503Y0103363D01*
X0018647Y0103428D01*
X0018793Y0103490D01*
X0018940Y0103548D01*
X0019089Y0103603D01*
X0019239Y0103654D01*
X0019390Y0103701D01*
X0019542Y0103744D01*
X0019695Y0103783D01*
X0019850Y0103819D01*
X0020005Y0103850D01*
X0020161Y0103878D01*
X0020317Y0103902D01*
X0020474Y0103922D01*
X0020632Y0103938D01*
X0020789Y0103950D01*
X0020948Y0103958D01*
X0021106Y0103962D01*
X0021264Y0103962D01*
X0021422Y0103958D01*
X0021581Y0103950D01*
X0021738Y0103938D01*
X0021896Y0103922D01*
X0022053Y0103902D01*
X0022209Y0103878D01*
X0022365Y0103850D01*
X0022520Y0103819D01*
X0022675Y0103783D01*
X0022828Y0103744D01*
X0022980Y0103701D01*
X0023131Y0103654D01*
X0023281Y0103603D01*
X0023430Y0103548D01*
X0023577Y0103490D01*
X0023723Y0103428D01*
X0023867Y0103363D01*
X0024009Y0103293D01*
X0024150Y0103221D01*
X0024289Y0103144D01*
X0024425Y0103065D01*
X0024560Y0102981D01*
X0024693Y0102895D01*
X0024823Y0102805D01*
X0024951Y0102712D01*
X0025077Y0102616D01*
X0025200Y0102516D01*
X0025321Y0102414D01*
X0025439Y0102309D01*
X0025554Y0102200D01*
X0025667Y0102089D01*
X0025777Y0101975D01*
X0025884Y0101858D01*
X0025988Y0101739D01*
X0026089Y0101617D01*
X0026186Y0101492D01*
X0026281Y0101365D01*
X0026372Y0101236D01*
X0026461Y0101105D01*
X0026545Y0100971D01*
X0026627Y0100835D01*
X0026705Y0100698D01*
X0026779Y0100558D01*
X0026850Y0100416D01*
X0026918Y0100273D01*
X0026982Y0100128D01*
X0027042Y0099982D01*
X0027098Y0099834D01*
X0027151Y0099685D01*
X0027200Y0099534D01*
X0027245Y0099382D01*
X0027286Y0099229D01*
X0027324Y0099076D01*
X0027357Y0098921D01*
X0027387Y0098765D01*
X0027413Y0098609D01*
X0027434Y0098452D01*
X0027452Y0098295D01*
X0027466Y0098137D01*
X0027476Y0097979D01*
X0027482Y0097821D01*
X0027484Y0097663D01*
X0027482Y0097505D01*
X0027476Y0097347D01*
X0027466Y0097189D01*
X0027452Y0097031D01*
X0027434Y0096874D01*
X0027413Y0096717D01*
X0027387Y0096561D01*
X0027357Y0096405D01*
X0027324Y0096250D01*
X0027286Y0096097D01*
X0027245Y0095944D01*
X0027200Y0095792D01*
X0027151Y0095641D01*
X0027098Y0095492D01*
X0027042Y0095344D01*
X0026982Y0095198D01*
X0026918Y0095053D01*
X0026850Y0094910D01*
X0026779Y0094768D01*
X0026705Y0094628D01*
X0026627Y0094491D01*
X0026545Y0094355D01*
X0026461Y0094221D01*
X0026372Y0094090D01*
X0026281Y0093961D01*
X0026186Y0093834D01*
X0026089Y0093709D01*
X0025988Y0093587D01*
X0025884Y0093468D01*
X0025777Y0093351D01*
X0025667Y0093237D01*
X0025554Y0093126D01*
X0025439Y0093017D01*
X0025321Y0092912D01*
X0025200Y0092810D01*
X0025077Y0092710D01*
X0024951Y0092614D01*
X0024823Y0092521D01*
X0024693Y0092431D01*
X0024560Y0092345D01*
X0024425Y0092261D01*
X0024289Y0092182D01*
X0024150Y0092105D01*
X0024009Y0092033D01*
X0023867Y0091963D01*
X0023723Y0091898D01*
X0023577Y0091836D01*
X0023430Y0091778D01*
X0023281Y0091723D01*
X0023131Y0091672D01*
X0022980Y0091625D01*
X0022828Y0091582D01*
X0022675Y0091543D01*
X0022520Y0091507D01*
X0022365Y0091476D01*
X0022209Y0091448D01*
X0022053Y0091424D01*
X0021896Y0091404D01*
X0021738Y0091388D01*
X0021581Y0091376D01*
X0021422Y0091368D01*
X0021264Y0091364D01*
X0021106Y0091364D01*
X0020948Y0091368D01*
X0020789Y0091376D01*
X0020632Y0091388D01*
X0020474Y0091404D01*
X0020317Y0091424D01*
X0020161Y0091448D01*
X0020005Y0091476D01*
X0019850Y0091507D01*
X0019695Y0091543D01*
X0019542Y0091582D01*
X0019390Y0091625D01*
X0019239Y0091672D01*
X0019089Y0091723D01*
X0018940Y0091778D01*
X0018793Y0091836D01*
X0018647Y0091898D01*
X0018503Y0091963D01*
X0018361Y0092033D01*
X0018220Y0092105D01*
X0018081Y0092182D01*
X0017945Y0092261D01*
X0017810Y0092345D01*
X0017677Y0092431D01*
X0017547Y0092521D01*
X0017419Y0092614D01*
X0017293Y0092710D01*
X0017170Y0092810D01*
X0017049Y0092912D01*
X0016931Y0093017D01*
X0016816Y0093126D01*
X0016703Y0093237D01*
X0016593Y0093351D01*
X0016486Y0093468D01*
X0016382Y0093587D01*
X0016281Y0093709D01*
X0016184Y0093834D01*
X0016089Y0093961D01*
X0015998Y0094090D01*
X0015909Y0094221D01*
X0015825Y0094355D01*
X0015743Y0094491D01*
X0015665Y0094628D01*
X0015591Y0094768D01*
X0015520Y0094910D01*
X0015452Y0095053D01*
X0015388Y0095198D01*
X0015328Y0095344D01*
X0015272Y0095492D01*
X0015219Y0095641D01*
X0015170Y0095792D01*
X0015125Y0095944D01*
X0015084Y0096097D01*
X0015046Y0096250D01*
X0015013Y0096405D01*
X0014983Y0096561D01*
X0014957Y0096717D01*
X0014936Y0096874D01*
X0014918Y0097031D01*
X0014904Y0097189D01*
X0014894Y0097347D01*
X0014888Y0097505D01*
X0014886Y0097663D01*
D12*
X0106761Y0064920D03*
X0106761Y0064760D03*
D13*
X0041369Y0070411D02*
X0040136Y0066711D01*
X0038903Y0070411D01*
X0037564Y0070411D02*
X0035508Y0070411D01*
X0035508Y0068766D01*
X0036742Y0068766D01*
X0036798Y0068764D01*
X0036854Y0068758D01*
X0036909Y0068749D01*
X0036964Y0068736D01*
X0037017Y0068719D01*
X0037069Y0068698D01*
X0037120Y0068674D01*
X0037169Y0068646D01*
X0037216Y0068616D01*
X0037261Y0068582D01*
X0037303Y0068545D01*
X0037343Y0068505D01*
X0037380Y0068463D01*
X0037414Y0068418D01*
X0037444Y0068371D01*
X0037472Y0068322D01*
X0037496Y0068271D01*
X0037517Y0068219D01*
X0037534Y0068166D01*
X0037547Y0068111D01*
X0037556Y0068056D01*
X0037562Y0068000D01*
X0037564Y0067944D01*
X0037564Y0067533D01*
X0037562Y0067477D01*
X0037556Y0067421D01*
X0037547Y0067366D01*
X0037534Y0067311D01*
X0037517Y0067258D01*
X0037496Y0067206D01*
X0037472Y0067155D01*
X0037444Y0067106D01*
X0037414Y0067059D01*
X0037380Y0067014D01*
X0037343Y0066972D01*
X0037303Y0066932D01*
X0037261Y0066895D01*
X0037216Y0066861D01*
X0037169Y0066831D01*
X0037120Y0066803D01*
X0037069Y0066779D01*
X0037017Y0066758D01*
X0036964Y0066741D01*
X0036909Y0066728D01*
X0036854Y0066719D01*
X0036798Y0066713D01*
X0036742Y0066711D01*
X0035508Y0066711D01*
X0036330Y0062143D02*
X0037564Y0062143D01*
X0036330Y0062143D02*
X0036274Y0062141D01*
X0036218Y0062135D01*
X0036163Y0062126D01*
X0036108Y0062113D01*
X0036055Y0062096D01*
X0036003Y0062075D01*
X0035952Y0062051D01*
X0035903Y0062023D01*
X0035856Y0061993D01*
X0035811Y0061959D01*
X0035769Y0061922D01*
X0035729Y0061882D01*
X0035692Y0061840D01*
X0035658Y0061795D01*
X0035628Y0061748D01*
X0035600Y0061699D01*
X0035576Y0061648D01*
X0035555Y0061596D01*
X0035538Y0061543D01*
X0035525Y0061488D01*
X0035516Y0061433D01*
X0035510Y0061377D01*
X0035508Y0061321D01*
X0035508Y0059265D01*
X0035510Y0059209D01*
X0035516Y0059153D01*
X0035525Y0059098D01*
X0035538Y0059043D01*
X0035555Y0058990D01*
X0035576Y0058938D01*
X0035600Y0058887D01*
X0035628Y0058838D01*
X0035658Y0058791D01*
X0035692Y0058746D01*
X0035729Y0058704D01*
X0035769Y0058664D01*
X0035811Y0058627D01*
X0035856Y0058593D01*
X0035903Y0058563D01*
X0035952Y0058535D01*
X0036003Y0058511D01*
X0036055Y0058490D01*
X0036108Y0058473D01*
X0036163Y0058460D01*
X0036218Y0058451D01*
X0036274Y0058445D01*
X0036330Y0058443D01*
X0037564Y0058443D01*
X0037564Y0060499D01*
X0036947Y0060499D01*
X0036536Y0052301D02*
X0035508Y0052301D01*
X0035508Y0048601D01*
X0035508Y0050245D02*
X0036536Y0050245D01*
X0036599Y0050247D01*
X0036662Y0050253D01*
X0036725Y0050263D01*
X0036787Y0050276D01*
X0036848Y0050293D01*
X0036907Y0050314D01*
X0036966Y0050339D01*
X0037022Y0050367D01*
X0037077Y0050399D01*
X0037130Y0050434D01*
X0037180Y0050472D01*
X0037229Y0050513D01*
X0037274Y0050557D01*
X0037317Y0050604D01*
X0037356Y0050653D01*
X0037393Y0050705D01*
X0037426Y0050759D01*
X0037456Y0050815D01*
X0037483Y0050872D01*
X0037506Y0050931D01*
X0037525Y0050992D01*
X0037540Y0051053D01*
X0037552Y0051115D01*
X0037560Y0051178D01*
X0037564Y0051241D01*
X0037564Y0051305D01*
X0037560Y0051368D01*
X0037552Y0051431D01*
X0037540Y0051493D01*
X0037525Y0051554D01*
X0037506Y0051615D01*
X0037483Y0051674D01*
X0037456Y0051731D01*
X0037426Y0051787D01*
X0037393Y0051841D01*
X0037356Y0051893D01*
X0037317Y0051942D01*
X0037274Y0051989D01*
X0037229Y0052033D01*
X0037180Y0052074D01*
X0037130Y0052112D01*
X0037077Y0052147D01*
X0037022Y0052179D01*
X0036966Y0052207D01*
X0036907Y0052232D01*
X0036848Y0052253D01*
X0036787Y0052270D01*
X0036725Y0052283D01*
X0036662Y0052293D01*
X0036599Y0052299D01*
X0036536Y0052301D01*
X0036651Y0032616D02*
X0037473Y0032616D01*
X0036651Y0032615D02*
X0036595Y0032613D01*
X0036539Y0032607D01*
X0036484Y0032598D01*
X0036429Y0032585D01*
X0036376Y0032568D01*
X0036324Y0032547D01*
X0036273Y0032523D01*
X0036224Y0032495D01*
X0036177Y0032465D01*
X0036132Y0032431D01*
X0036090Y0032394D01*
X0036050Y0032354D01*
X0036013Y0032312D01*
X0035979Y0032267D01*
X0035949Y0032220D01*
X0035921Y0032171D01*
X0035897Y0032120D01*
X0035876Y0032068D01*
X0035859Y0032015D01*
X0035846Y0031960D01*
X0035837Y0031905D01*
X0035831Y0031849D01*
X0035829Y0031793D01*
X0035829Y0029738D01*
X0035831Y0029682D01*
X0035837Y0029626D01*
X0035846Y0029571D01*
X0035859Y0029516D01*
X0035876Y0029463D01*
X0035897Y0029411D01*
X0035921Y0029360D01*
X0035949Y0029311D01*
X0035979Y0029264D01*
X0036013Y0029219D01*
X0036050Y0029177D01*
X0036090Y0029137D01*
X0036132Y0029100D01*
X0036177Y0029066D01*
X0036224Y0029036D01*
X0036273Y0029008D01*
X0036324Y0028984D01*
X0036376Y0028963D01*
X0036429Y0028946D01*
X0036484Y0028933D01*
X0036539Y0028924D01*
X0036595Y0028918D01*
X0036651Y0028916D01*
X0037473Y0028916D01*
X0034414Y0028916D02*
X0032359Y0028916D01*
X0034414Y0032616D01*
X0032359Y0032616D01*
D14*
X0051024Y0031482D02*
X0058524Y0031482D01*
X0058526Y0031608D01*
X0058532Y0031733D01*
X0058542Y0031858D01*
X0058556Y0031983D01*
X0058573Y0032108D01*
X0058595Y0032232D01*
X0058620Y0032355D01*
X0058650Y0032477D01*
X0058683Y0032598D01*
X0058720Y0032718D01*
X0058760Y0032837D01*
X0058805Y0032954D01*
X0058853Y0033071D01*
X0058905Y0033185D01*
X0058960Y0033298D01*
X0059019Y0033409D01*
X0059081Y0033518D01*
X0059147Y0033625D01*
X0059216Y0033730D01*
X0059288Y0033833D01*
X0059363Y0033934D01*
X0059442Y0034032D01*
X0059524Y0034127D01*
X0059608Y0034220D01*
X0059696Y0034310D01*
X0059786Y0034398D01*
X0059879Y0034482D01*
X0059974Y0034564D01*
X0060072Y0034643D01*
X0060173Y0034718D01*
X0060276Y0034790D01*
X0060381Y0034859D01*
X0060488Y0034925D01*
X0060597Y0034987D01*
X0060708Y0035046D01*
X0060821Y0035101D01*
X0060935Y0035153D01*
X0061052Y0035201D01*
X0061169Y0035246D01*
X0061288Y0035286D01*
X0061408Y0035323D01*
X0061529Y0035356D01*
X0061651Y0035386D01*
X0061774Y0035411D01*
X0061898Y0035433D01*
X0062023Y0035450D01*
X0062148Y0035464D01*
X0062273Y0035474D01*
X0062398Y0035480D01*
X0062524Y0035482D01*
X0062650Y0035480D01*
X0062775Y0035474D01*
X0062900Y0035464D01*
X0063025Y0035450D01*
X0063150Y0035433D01*
X0063274Y0035411D01*
X0063397Y0035386D01*
X0063519Y0035356D01*
X0063640Y0035323D01*
X0063760Y0035286D01*
X0063879Y0035246D01*
X0063996Y0035201D01*
X0064113Y0035153D01*
X0064227Y0035101D01*
X0064340Y0035046D01*
X0064451Y0034987D01*
X0064560Y0034925D01*
X0064667Y0034859D01*
X0064772Y0034790D01*
X0064875Y0034718D01*
X0064976Y0034643D01*
X0065074Y0034564D01*
X0065169Y0034482D01*
X0065262Y0034398D01*
X0065352Y0034310D01*
X0065440Y0034220D01*
X0065524Y0034127D01*
X0065606Y0034032D01*
X0065685Y0033934D01*
X0065760Y0033833D01*
X0065832Y0033730D01*
X0065901Y0033625D01*
X0065967Y0033518D01*
X0066029Y0033409D01*
X0066088Y0033298D01*
X0066143Y0033185D01*
X0066195Y0033071D01*
X0066243Y0032954D01*
X0066288Y0032837D01*
X0066328Y0032718D01*
X0066365Y0032598D01*
X0066398Y0032477D01*
X0066428Y0032355D01*
X0066453Y0032232D01*
X0066475Y0032108D01*
X0066492Y0031983D01*
X0066506Y0031858D01*
X0066516Y0031733D01*
X0066522Y0031608D01*
X0066524Y0031482D01*
X0074024Y0031482D01*
X0074024Y0061482D01*
X0051024Y0061482D01*
X0051024Y0031482D01*
X0049315Y0015580D02*
X0048448Y0015580D01*
X0049315Y0015580D02*
X0049362Y0015578D01*
X0049408Y0015573D01*
X0049453Y0015563D01*
X0049498Y0015550D01*
X0049542Y0015534D01*
X0049584Y0015514D01*
X0049624Y0015491D01*
X0049662Y0015464D01*
X0049698Y0015435D01*
X0049732Y0015402D01*
X0049763Y0015368D01*
X0049791Y0015330D01*
X0049816Y0015291D01*
X0049837Y0015250D01*
X0049855Y0015207D01*
X0049870Y0015163D01*
X0049881Y0015118D01*
X0049889Y0015072D01*
X0049893Y0015025D01*
X0049893Y0014979D01*
X0049889Y0014932D01*
X0049881Y0014886D01*
X0049870Y0014841D01*
X0049855Y0014797D01*
X0049837Y0014754D01*
X0049816Y0014713D01*
X0049791Y0014674D01*
X0049763Y0014636D01*
X0049732Y0014602D01*
X0049698Y0014569D01*
X0049662Y0014540D01*
X0049624Y0014513D01*
X0049584Y0014490D01*
X0049542Y0014470D01*
X0049498Y0014454D01*
X0049453Y0014441D01*
X0049408Y0014431D01*
X0049362Y0014426D01*
X0049315Y0014424D01*
X0048737Y0014424D01*
X0049171Y0014424D02*
X0049224Y0014422D01*
X0049276Y0014416D01*
X0049328Y0014407D01*
X0049379Y0014393D01*
X0049429Y0014376D01*
X0049477Y0014356D01*
X0049524Y0014332D01*
X0049569Y0014304D01*
X0049612Y0014273D01*
X0049653Y0014240D01*
X0049691Y0014203D01*
X0049726Y0014164D01*
X0049758Y0014122D01*
X0049787Y0014078D01*
X0049813Y0014032D01*
X0049835Y0013984D01*
X0049854Y0013935D01*
X0049870Y0013885D01*
X0049881Y0013833D01*
X0049889Y0013781D01*
X0049893Y0013728D01*
X0049893Y0013676D01*
X0049889Y0013623D01*
X0049881Y0013571D01*
X0049870Y0013519D01*
X0049854Y0013469D01*
X0049835Y0013420D01*
X0049813Y0013372D01*
X0049787Y0013326D01*
X0049758Y0013282D01*
X0049726Y0013240D01*
X0049691Y0013201D01*
X0049653Y0013164D01*
X0049612Y0013131D01*
X0049569Y0013100D01*
X0049524Y0013072D01*
X0049477Y0013048D01*
X0049429Y0013028D01*
X0049379Y0013011D01*
X0049328Y0012997D01*
X0049276Y0012988D01*
X0049224Y0012982D01*
X0049171Y0012980D01*
X0048448Y0012980D01*
X0047013Y0012980D02*
X0045568Y0012980D01*
X0046291Y0012980D02*
X0046291Y0015580D01*
X0045568Y0015002D01*
X0043442Y0015579D02*
X0043495Y0015577D01*
X0043547Y0015571D01*
X0043599Y0015562D01*
X0043650Y0015548D01*
X0043700Y0015531D01*
X0043748Y0015511D01*
X0043795Y0015487D01*
X0043840Y0015459D01*
X0043883Y0015428D01*
X0043924Y0015395D01*
X0043962Y0015358D01*
X0043997Y0015319D01*
X0044029Y0015277D01*
X0044058Y0015233D01*
X0044084Y0015187D01*
X0044106Y0015139D01*
X0044125Y0015090D01*
X0044141Y0015040D01*
X0044152Y0014988D01*
X0044160Y0014936D01*
X0044164Y0014883D01*
X0044164Y0014831D01*
X0044160Y0014778D01*
X0044152Y0014726D01*
X0044141Y0014674D01*
X0044125Y0014624D01*
X0044106Y0014575D01*
X0044084Y0014527D01*
X0044058Y0014481D01*
X0044029Y0014437D01*
X0043997Y0014395D01*
X0043962Y0014356D01*
X0043924Y0014319D01*
X0043883Y0014286D01*
X0043840Y0014255D01*
X0043795Y0014227D01*
X0043748Y0014203D01*
X0043700Y0014183D01*
X0043650Y0014166D01*
X0043599Y0014152D01*
X0043547Y0014143D01*
X0043495Y0014137D01*
X0043442Y0014135D01*
X0042720Y0014135D01*
X0043586Y0014135D02*
X0044164Y0012980D01*
X0042720Y0012980D02*
X0042720Y0015580D01*
X0043442Y0015580D01*
X0075296Y0015630D02*
X0075296Y0013030D01*
X0075296Y0014186D02*
X0076018Y0014186D01*
X0076163Y0014186D02*
X0076741Y0013030D01*
X0078145Y0013030D02*
X0079589Y0013030D01*
X0078867Y0013030D02*
X0078867Y0015630D01*
X0078145Y0015052D01*
X0076018Y0015630D02*
X0076071Y0015628D01*
X0076123Y0015622D01*
X0076175Y0015613D01*
X0076226Y0015599D01*
X0076276Y0015582D01*
X0076324Y0015562D01*
X0076371Y0015538D01*
X0076416Y0015510D01*
X0076459Y0015479D01*
X0076500Y0015446D01*
X0076538Y0015409D01*
X0076573Y0015370D01*
X0076605Y0015328D01*
X0076634Y0015284D01*
X0076660Y0015238D01*
X0076682Y0015190D01*
X0076701Y0015141D01*
X0076717Y0015091D01*
X0076728Y0015039D01*
X0076736Y0014987D01*
X0076740Y0014934D01*
X0076740Y0014882D01*
X0076736Y0014829D01*
X0076728Y0014777D01*
X0076717Y0014725D01*
X0076701Y0014675D01*
X0076682Y0014626D01*
X0076660Y0014578D01*
X0076634Y0014532D01*
X0076605Y0014488D01*
X0076573Y0014446D01*
X0076538Y0014407D01*
X0076500Y0014370D01*
X0076459Y0014337D01*
X0076416Y0014306D01*
X0076371Y0014278D01*
X0076324Y0014254D01*
X0076276Y0014234D01*
X0076226Y0014217D01*
X0076175Y0014203D01*
X0076123Y0014194D01*
X0076071Y0014188D01*
X0076018Y0014186D01*
X0076018Y0015630D02*
X0075296Y0015630D01*
X0081025Y0015052D02*
X0081747Y0015630D01*
X0081747Y0013030D01*
X0081025Y0013030D02*
X0082469Y0013030D01*
X0096908Y0013161D02*
X0096908Y0015761D01*
X0097631Y0015761D01*
X0097684Y0015759D01*
X0097736Y0015753D01*
X0097788Y0015744D01*
X0097839Y0015730D01*
X0097889Y0015713D01*
X0097937Y0015693D01*
X0097984Y0015669D01*
X0098029Y0015641D01*
X0098072Y0015610D01*
X0098113Y0015577D01*
X0098151Y0015540D01*
X0098186Y0015501D01*
X0098218Y0015459D01*
X0098247Y0015415D01*
X0098273Y0015369D01*
X0098295Y0015321D01*
X0098314Y0015272D01*
X0098330Y0015222D01*
X0098341Y0015170D01*
X0098349Y0015118D01*
X0098353Y0015065D01*
X0098353Y0015013D01*
X0098349Y0014960D01*
X0098341Y0014908D01*
X0098330Y0014856D01*
X0098314Y0014806D01*
X0098295Y0014757D01*
X0098273Y0014709D01*
X0098247Y0014663D01*
X0098218Y0014619D01*
X0098186Y0014577D01*
X0098151Y0014538D01*
X0098113Y0014501D01*
X0098072Y0014468D01*
X0098029Y0014437D01*
X0097984Y0014409D01*
X0097937Y0014385D01*
X0097889Y0014365D01*
X0097839Y0014348D01*
X0097788Y0014334D01*
X0097736Y0014325D01*
X0097684Y0014319D01*
X0097631Y0014317D01*
X0097631Y0014316D02*
X0096908Y0014316D01*
X0097775Y0014316D02*
X0098353Y0013161D01*
X0099757Y0013161D02*
X0101202Y0013161D01*
X0100480Y0013161D02*
X0100480Y0015761D01*
X0099757Y0015183D01*
X0102637Y0013161D02*
X0104082Y0013161D01*
X0102637Y0013161D02*
X0103865Y0014605D01*
X0103432Y0015761D02*
X0103377Y0015759D01*
X0103322Y0015754D01*
X0103267Y0015745D01*
X0103214Y0015732D01*
X0103161Y0015716D01*
X0103109Y0015696D01*
X0103059Y0015673D01*
X0103010Y0015647D01*
X0102963Y0015617D01*
X0102919Y0015585D01*
X0102876Y0015549D01*
X0102836Y0015511D01*
X0102799Y0015470D01*
X0102764Y0015427D01*
X0102733Y0015382D01*
X0102704Y0015335D01*
X0102679Y0015286D01*
X0102656Y0015235D01*
X0102638Y0015183D01*
X0103865Y0014606D02*
X0103901Y0014642D01*
X0103934Y0014682D01*
X0103964Y0014723D01*
X0103991Y0014767D01*
X0104015Y0014813D01*
X0104035Y0014860D01*
X0104052Y0014908D01*
X0104065Y0014958D01*
X0104074Y0015009D01*
X0104080Y0015060D01*
X0104082Y0015111D01*
X0104080Y0015160D01*
X0104075Y0015208D01*
X0104066Y0015256D01*
X0104053Y0015303D01*
X0104037Y0015348D01*
X0104018Y0015393D01*
X0103995Y0015436D01*
X0103969Y0015477D01*
X0103940Y0015516D01*
X0103908Y0015553D01*
X0103874Y0015587D01*
X0103837Y0015619D01*
X0103798Y0015648D01*
X0103757Y0015674D01*
X0103714Y0015697D01*
X0103669Y0015716D01*
X0103624Y0015732D01*
X0103577Y0015745D01*
X0103529Y0015754D01*
X0103481Y0015759D01*
X0103432Y0015761D01*
X0126495Y0016934D02*
X0126495Y0013934D01*
X0152095Y0013934D01*
X0152095Y0016934D01*
X0115264Y0033618D02*
X0115262Y0033565D01*
X0115256Y0033513D01*
X0115247Y0033461D01*
X0115233Y0033410D01*
X0115216Y0033360D01*
X0115196Y0033312D01*
X0115172Y0033265D01*
X0115144Y0033220D01*
X0115113Y0033177D01*
X0115080Y0033136D01*
X0115043Y0033098D01*
X0115004Y0033063D01*
X0114962Y0033031D01*
X0114918Y0033002D01*
X0114872Y0032976D01*
X0114824Y0032954D01*
X0114775Y0032935D01*
X0114725Y0032919D01*
X0114673Y0032908D01*
X0114621Y0032900D01*
X0114568Y0032896D01*
X0114516Y0032896D01*
X0114463Y0032900D01*
X0114411Y0032908D01*
X0114359Y0032919D01*
X0114309Y0032935D01*
X0114260Y0032954D01*
X0114212Y0032976D01*
X0114166Y0033002D01*
X0114122Y0033031D01*
X0114080Y0033063D01*
X0114041Y0033098D01*
X0114004Y0033136D01*
X0113971Y0033177D01*
X0113940Y0033220D01*
X0113912Y0033265D01*
X0113888Y0033312D01*
X0113868Y0033360D01*
X0113851Y0033410D01*
X0113837Y0033461D01*
X0113828Y0033513D01*
X0113822Y0033565D01*
X0113820Y0033618D01*
X0113822Y0033671D01*
X0113828Y0033723D01*
X0113837Y0033775D01*
X0113851Y0033826D01*
X0113868Y0033876D01*
X0113888Y0033924D01*
X0113912Y0033971D01*
X0113940Y0034016D01*
X0113971Y0034059D01*
X0114004Y0034100D01*
X0114041Y0034138D01*
X0114080Y0034173D01*
X0114122Y0034205D01*
X0114166Y0034234D01*
X0114212Y0034260D01*
X0114260Y0034282D01*
X0114309Y0034301D01*
X0114359Y0034317D01*
X0114411Y0034328D01*
X0114463Y0034336D01*
X0114516Y0034340D01*
X0114568Y0034340D01*
X0114621Y0034336D01*
X0114673Y0034328D01*
X0114725Y0034317D01*
X0114775Y0034301D01*
X0114824Y0034282D01*
X0114872Y0034260D01*
X0114918Y0034234D01*
X0114962Y0034205D01*
X0115004Y0034173D01*
X0115043Y0034138D01*
X0115080Y0034100D01*
X0115113Y0034059D01*
X0115144Y0034016D01*
X0115172Y0033971D01*
X0115196Y0033924D01*
X0115216Y0033876D01*
X0115233Y0033826D01*
X0115247Y0033775D01*
X0115256Y0033723D01*
X0115262Y0033671D01*
X0115264Y0033618D01*
X0115120Y0034918D02*
X0115118Y0034871D01*
X0115113Y0034825D01*
X0115103Y0034780D01*
X0115090Y0034735D01*
X0115074Y0034691D01*
X0115054Y0034649D01*
X0115031Y0034609D01*
X0115004Y0034571D01*
X0114975Y0034535D01*
X0114942Y0034501D01*
X0114908Y0034470D01*
X0114870Y0034442D01*
X0114831Y0034417D01*
X0114790Y0034396D01*
X0114747Y0034378D01*
X0114703Y0034363D01*
X0114658Y0034352D01*
X0114612Y0034344D01*
X0114565Y0034340D01*
X0114519Y0034340D01*
X0114472Y0034344D01*
X0114426Y0034352D01*
X0114381Y0034363D01*
X0114337Y0034378D01*
X0114294Y0034396D01*
X0114253Y0034417D01*
X0114214Y0034442D01*
X0114176Y0034470D01*
X0114142Y0034501D01*
X0114109Y0034535D01*
X0114080Y0034571D01*
X0114053Y0034609D01*
X0114030Y0034649D01*
X0114010Y0034691D01*
X0113994Y0034735D01*
X0113981Y0034780D01*
X0113971Y0034825D01*
X0113966Y0034871D01*
X0113964Y0034918D01*
X0113966Y0034965D01*
X0113971Y0035011D01*
X0113981Y0035056D01*
X0113994Y0035101D01*
X0114010Y0035145D01*
X0114030Y0035187D01*
X0114053Y0035227D01*
X0114080Y0035265D01*
X0114109Y0035301D01*
X0114142Y0035335D01*
X0114176Y0035366D01*
X0114214Y0035394D01*
X0114253Y0035419D01*
X0114294Y0035440D01*
X0114337Y0035458D01*
X0114381Y0035473D01*
X0114426Y0035484D01*
X0114472Y0035492D01*
X0114519Y0035496D01*
X0114565Y0035496D01*
X0114612Y0035492D01*
X0114658Y0035484D01*
X0114703Y0035473D01*
X0114747Y0035458D01*
X0114790Y0035440D01*
X0114831Y0035419D01*
X0114870Y0035394D01*
X0114908Y0035366D01*
X0114942Y0035335D01*
X0114975Y0035301D01*
X0115004Y0035265D01*
X0115031Y0035227D01*
X0115054Y0035187D01*
X0115074Y0035145D01*
X0115090Y0035101D01*
X0115103Y0035056D01*
X0115113Y0035011D01*
X0115118Y0034965D01*
X0115120Y0034918D01*
X0112562Y0035496D02*
X0111984Y0035496D01*
X0111936Y0035494D01*
X0111889Y0035488D01*
X0111842Y0035478D01*
X0111796Y0035465D01*
X0111752Y0035447D01*
X0111709Y0035426D01*
X0111668Y0035402D01*
X0111629Y0035374D01*
X0111593Y0035343D01*
X0111559Y0035309D01*
X0111528Y0035273D01*
X0111500Y0035234D01*
X0111476Y0035193D01*
X0111455Y0035150D01*
X0111437Y0035106D01*
X0111424Y0035060D01*
X0111414Y0035013D01*
X0111408Y0034966D01*
X0111406Y0034918D01*
X0111406Y0033474D01*
X0111408Y0033429D01*
X0111413Y0033384D01*
X0111422Y0033339D01*
X0111434Y0033295D01*
X0111450Y0033253D01*
X0111469Y0033212D01*
X0111491Y0033172D01*
X0111516Y0033134D01*
X0111544Y0033099D01*
X0111575Y0033065D01*
X0111609Y0033034D01*
X0111644Y0033006D01*
X0111682Y0032981D01*
X0111722Y0032959D01*
X0111763Y0032940D01*
X0111805Y0032924D01*
X0111849Y0032912D01*
X0111894Y0032903D01*
X0111939Y0032898D01*
X0111984Y0032896D01*
X0112562Y0032896D01*
X0100319Y0043726D02*
X0097957Y0045301D01*
X0100319Y0046876D01*
X0100319Y0043726D01*
X0126495Y0044534D02*
X0126495Y0047534D01*
X0138095Y0047534D01*
X0140495Y0047534D01*
X0152095Y0047534D01*
X0152095Y0044534D01*
X0166654Y0044840D02*
X0166654Y0046285D01*
X0166656Y0046333D01*
X0166662Y0046380D01*
X0166672Y0046427D01*
X0166685Y0046473D01*
X0166703Y0046517D01*
X0166724Y0046560D01*
X0166748Y0046601D01*
X0166776Y0046640D01*
X0166807Y0046676D01*
X0166841Y0046710D01*
X0166877Y0046741D01*
X0166916Y0046769D01*
X0166957Y0046793D01*
X0167000Y0046814D01*
X0167044Y0046832D01*
X0167090Y0046845D01*
X0167137Y0046855D01*
X0167184Y0046861D01*
X0167232Y0046863D01*
X0167232Y0046862D02*
X0167810Y0046862D01*
X0169068Y0046862D02*
X0170513Y0046862D01*
X0169791Y0044262D01*
X0167810Y0044262D02*
X0167232Y0044262D01*
X0167187Y0044264D01*
X0167142Y0044269D01*
X0167097Y0044278D01*
X0167053Y0044290D01*
X0167011Y0044306D01*
X0166970Y0044325D01*
X0166930Y0044347D01*
X0166892Y0044372D01*
X0166857Y0044400D01*
X0166823Y0044431D01*
X0166792Y0044465D01*
X0166764Y0044500D01*
X0166739Y0044538D01*
X0166717Y0044578D01*
X0166698Y0044619D01*
X0166682Y0044661D01*
X0166670Y0044705D01*
X0166661Y0044750D01*
X0166656Y0044795D01*
X0166654Y0044840D01*
X0169068Y0046573D02*
X0169068Y0046862D01*
X0200686Y0043139D02*
X0200686Y0040539D01*
X0200686Y0041694D02*
X0201408Y0041694D01*
X0201553Y0041694D02*
X0202131Y0040539D01*
X0203535Y0041261D02*
X0203535Y0041983D01*
X0204402Y0041983D01*
X0203535Y0041983D02*
X0203537Y0042050D01*
X0203543Y0042117D01*
X0203553Y0042184D01*
X0203566Y0042250D01*
X0203584Y0042315D01*
X0203605Y0042378D01*
X0203630Y0042441D01*
X0203658Y0042502D01*
X0203690Y0042561D01*
X0203725Y0042618D01*
X0203764Y0042673D01*
X0203805Y0042726D01*
X0203850Y0042776D01*
X0203898Y0042824D01*
X0203948Y0042869D01*
X0204001Y0042910D01*
X0204056Y0042949D01*
X0204113Y0042984D01*
X0204172Y0043016D01*
X0204233Y0043044D01*
X0204296Y0043069D01*
X0204359Y0043090D01*
X0204424Y0043108D01*
X0204490Y0043121D01*
X0204557Y0043131D01*
X0204624Y0043137D01*
X0204691Y0043139D01*
X0204980Y0041405D02*
X0204980Y0041261D01*
X0204980Y0041405D02*
X0204978Y0041450D01*
X0204973Y0041495D01*
X0204964Y0041540D01*
X0204952Y0041584D01*
X0204936Y0041626D01*
X0204917Y0041667D01*
X0204895Y0041707D01*
X0204870Y0041745D01*
X0204842Y0041780D01*
X0204811Y0041814D01*
X0204777Y0041845D01*
X0204742Y0041873D01*
X0204704Y0041898D01*
X0204664Y0041920D01*
X0204623Y0041939D01*
X0204581Y0041955D01*
X0204537Y0041967D01*
X0204492Y0041976D01*
X0204447Y0041981D01*
X0204402Y0041983D01*
X0204979Y0041261D02*
X0204977Y0041208D01*
X0204971Y0041156D01*
X0204962Y0041104D01*
X0204948Y0041053D01*
X0204931Y0041003D01*
X0204911Y0040955D01*
X0204887Y0040908D01*
X0204859Y0040863D01*
X0204828Y0040820D01*
X0204795Y0040779D01*
X0204758Y0040741D01*
X0204719Y0040706D01*
X0204677Y0040674D01*
X0204633Y0040645D01*
X0204587Y0040619D01*
X0204539Y0040597D01*
X0204490Y0040578D01*
X0204440Y0040562D01*
X0204388Y0040551D01*
X0204336Y0040543D01*
X0204283Y0040539D01*
X0204231Y0040539D01*
X0204178Y0040543D01*
X0204126Y0040551D01*
X0204074Y0040562D01*
X0204024Y0040578D01*
X0203975Y0040597D01*
X0203927Y0040619D01*
X0203881Y0040645D01*
X0203837Y0040674D01*
X0203795Y0040706D01*
X0203756Y0040741D01*
X0203719Y0040779D01*
X0203686Y0040820D01*
X0203655Y0040863D01*
X0203627Y0040908D01*
X0203603Y0040955D01*
X0203583Y0041003D01*
X0203566Y0041053D01*
X0203552Y0041104D01*
X0203543Y0041156D01*
X0203537Y0041208D01*
X0203535Y0041261D01*
X0201408Y0041695D02*
X0201461Y0041697D01*
X0201513Y0041703D01*
X0201565Y0041712D01*
X0201616Y0041726D01*
X0201666Y0041743D01*
X0201714Y0041763D01*
X0201761Y0041787D01*
X0201806Y0041815D01*
X0201849Y0041846D01*
X0201890Y0041879D01*
X0201928Y0041916D01*
X0201963Y0041955D01*
X0201995Y0041997D01*
X0202024Y0042041D01*
X0202050Y0042087D01*
X0202072Y0042135D01*
X0202091Y0042184D01*
X0202107Y0042234D01*
X0202118Y0042286D01*
X0202126Y0042338D01*
X0202130Y0042391D01*
X0202130Y0042443D01*
X0202126Y0042496D01*
X0202118Y0042548D01*
X0202107Y0042600D01*
X0202091Y0042650D01*
X0202072Y0042699D01*
X0202050Y0042747D01*
X0202024Y0042793D01*
X0201995Y0042837D01*
X0201963Y0042879D01*
X0201928Y0042918D01*
X0201890Y0042955D01*
X0201849Y0042988D01*
X0201806Y0043019D01*
X0201761Y0043047D01*
X0201714Y0043071D01*
X0201666Y0043091D01*
X0201616Y0043108D01*
X0201565Y0043122D01*
X0201513Y0043131D01*
X0201461Y0043137D01*
X0201408Y0043139D01*
X0200686Y0043139D01*
X0200461Y0053188D02*
X0200461Y0055788D01*
X0201184Y0055788D01*
X0201184Y0055787D02*
X0201237Y0055785D01*
X0201289Y0055779D01*
X0201341Y0055770D01*
X0201392Y0055756D01*
X0201442Y0055739D01*
X0201490Y0055719D01*
X0201537Y0055695D01*
X0201582Y0055667D01*
X0201625Y0055636D01*
X0201666Y0055603D01*
X0201704Y0055566D01*
X0201739Y0055527D01*
X0201771Y0055485D01*
X0201800Y0055441D01*
X0201826Y0055395D01*
X0201848Y0055347D01*
X0201867Y0055298D01*
X0201883Y0055248D01*
X0201894Y0055196D01*
X0201902Y0055144D01*
X0201906Y0055091D01*
X0201906Y0055039D01*
X0201902Y0054986D01*
X0201894Y0054934D01*
X0201883Y0054882D01*
X0201867Y0054832D01*
X0201848Y0054783D01*
X0201826Y0054735D01*
X0201800Y0054689D01*
X0201771Y0054645D01*
X0201739Y0054603D01*
X0201704Y0054564D01*
X0201666Y0054527D01*
X0201625Y0054494D01*
X0201582Y0054463D01*
X0201537Y0054435D01*
X0201490Y0054411D01*
X0201442Y0054391D01*
X0201392Y0054374D01*
X0201341Y0054360D01*
X0201289Y0054351D01*
X0201237Y0054345D01*
X0201184Y0054343D01*
X0200461Y0054343D01*
X0201328Y0054343D02*
X0201906Y0053188D01*
X0204033Y0053188D02*
X0204755Y0055788D01*
X0203310Y0055788D01*
X0203310Y0055499D01*
X0201408Y0032903D02*
X0200686Y0032903D01*
X0200686Y0030303D01*
X0200686Y0031458D02*
X0201408Y0031458D01*
X0201553Y0031458D02*
X0202131Y0030303D01*
X0203824Y0030302D02*
X0203891Y0030304D01*
X0203958Y0030310D01*
X0204025Y0030320D01*
X0204091Y0030333D01*
X0204156Y0030351D01*
X0204219Y0030372D01*
X0204282Y0030397D01*
X0204343Y0030425D01*
X0204402Y0030457D01*
X0204459Y0030492D01*
X0204514Y0030531D01*
X0204567Y0030572D01*
X0204617Y0030617D01*
X0204665Y0030665D01*
X0204710Y0030715D01*
X0204751Y0030768D01*
X0204790Y0030823D01*
X0204825Y0030880D01*
X0204857Y0030939D01*
X0204885Y0031000D01*
X0204910Y0031063D01*
X0204931Y0031126D01*
X0204949Y0031191D01*
X0204962Y0031257D01*
X0204972Y0031324D01*
X0204978Y0031391D01*
X0204980Y0031458D01*
X0204980Y0032180D01*
X0204980Y0031458D02*
X0204113Y0031458D01*
X0204068Y0031460D01*
X0204023Y0031465D01*
X0203978Y0031474D01*
X0203934Y0031486D01*
X0203892Y0031502D01*
X0203851Y0031521D01*
X0203811Y0031543D01*
X0203773Y0031568D01*
X0203738Y0031596D01*
X0203704Y0031627D01*
X0203673Y0031661D01*
X0203645Y0031696D01*
X0203620Y0031734D01*
X0203598Y0031774D01*
X0203579Y0031815D01*
X0203563Y0031857D01*
X0203551Y0031901D01*
X0203542Y0031946D01*
X0203537Y0031991D01*
X0203535Y0032036D01*
X0203535Y0032180D01*
X0203537Y0032233D01*
X0203543Y0032285D01*
X0203552Y0032337D01*
X0203566Y0032388D01*
X0203583Y0032438D01*
X0203603Y0032486D01*
X0203627Y0032533D01*
X0203655Y0032578D01*
X0203686Y0032621D01*
X0203719Y0032662D01*
X0203756Y0032700D01*
X0203795Y0032735D01*
X0203837Y0032767D01*
X0203881Y0032796D01*
X0203927Y0032822D01*
X0203975Y0032844D01*
X0204024Y0032863D01*
X0204074Y0032879D01*
X0204126Y0032890D01*
X0204178Y0032898D01*
X0204231Y0032902D01*
X0204283Y0032902D01*
X0204336Y0032898D01*
X0204388Y0032890D01*
X0204440Y0032879D01*
X0204490Y0032863D01*
X0204539Y0032844D01*
X0204587Y0032822D01*
X0204633Y0032796D01*
X0204677Y0032767D01*
X0204719Y0032735D01*
X0204758Y0032700D01*
X0204795Y0032662D01*
X0204828Y0032621D01*
X0204859Y0032578D01*
X0204887Y0032533D01*
X0204911Y0032486D01*
X0204931Y0032438D01*
X0204948Y0032388D01*
X0204962Y0032337D01*
X0204971Y0032285D01*
X0204977Y0032233D01*
X0204979Y0032180D01*
X0201408Y0031458D02*
X0201461Y0031460D01*
X0201513Y0031466D01*
X0201565Y0031475D01*
X0201616Y0031489D01*
X0201666Y0031506D01*
X0201714Y0031526D01*
X0201761Y0031550D01*
X0201806Y0031578D01*
X0201849Y0031609D01*
X0201890Y0031642D01*
X0201928Y0031679D01*
X0201963Y0031718D01*
X0201995Y0031760D01*
X0202024Y0031804D01*
X0202050Y0031850D01*
X0202072Y0031898D01*
X0202091Y0031947D01*
X0202107Y0031997D01*
X0202118Y0032049D01*
X0202126Y0032101D01*
X0202130Y0032154D01*
X0202130Y0032206D01*
X0202126Y0032259D01*
X0202118Y0032311D01*
X0202107Y0032363D01*
X0202091Y0032413D01*
X0202072Y0032462D01*
X0202050Y0032510D01*
X0202024Y0032556D01*
X0201995Y0032600D01*
X0201963Y0032642D01*
X0201928Y0032681D01*
X0201890Y0032718D01*
X0201849Y0032751D01*
X0201806Y0032782D01*
X0201761Y0032810D01*
X0201714Y0032834D01*
X0201666Y0032854D01*
X0201616Y0032871D01*
X0201565Y0032885D01*
X0201513Y0032894D01*
X0201461Y0032900D01*
X0201408Y0032902D01*
X0201349Y0020304D02*
X0202072Y0020304D01*
X0202125Y0020302D01*
X0202177Y0020296D01*
X0202229Y0020287D01*
X0202280Y0020273D01*
X0202330Y0020256D01*
X0202378Y0020236D01*
X0202425Y0020212D01*
X0202470Y0020184D01*
X0202513Y0020153D01*
X0202554Y0020120D01*
X0202592Y0020083D01*
X0202627Y0020044D01*
X0202659Y0020002D01*
X0202688Y0019958D01*
X0202714Y0019912D01*
X0202736Y0019864D01*
X0202755Y0019815D01*
X0202771Y0019765D01*
X0202782Y0019713D01*
X0202790Y0019661D01*
X0202794Y0019608D01*
X0202794Y0019556D01*
X0202790Y0019503D01*
X0202782Y0019451D01*
X0202771Y0019399D01*
X0202755Y0019349D01*
X0202736Y0019300D01*
X0202714Y0019252D01*
X0202688Y0019206D01*
X0202659Y0019162D01*
X0202627Y0019120D01*
X0202592Y0019081D01*
X0202554Y0019044D01*
X0202513Y0019011D01*
X0202470Y0018980D01*
X0202425Y0018952D01*
X0202378Y0018928D01*
X0202330Y0018908D01*
X0202280Y0018891D01*
X0202229Y0018877D01*
X0202177Y0018868D01*
X0202125Y0018862D01*
X0202072Y0018860D01*
X0201349Y0018860D01*
X0202216Y0018860D02*
X0202794Y0017704D01*
X0204198Y0017704D02*
X0205643Y0017704D01*
X0204921Y0017704D02*
X0204921Y0020304D01*
X0204198Y0019726D01*
X0208523Y0019004D02*
X0208521Y0018916D01*
X0208516Y0018827D01*
X0208507Y0018740D01*
X0208494Y0018652D01*
X0208478Y0018565D01*
X0208458Y0018479D01*
X0208434Y0018394D01*
X0208407Y0018310D01*
X0208377Y0018227D01*
X0208343Y0018145D01*
X0208306Y0018065D01*
X0208306Y0018066D02*
X0208290Y0018025D01*
X0208271Y0017985D01*
X0208248Y0017947D01*
X0208223Y0017911D01*
X0208194Y0017877D01*
X0208163Y0017846D01*
X0208129Y0017818D01*
X0208093Y0017792D01*
X0208055Y0017769D01*
X0208016Y0017750D01*
X0207974Y0017734D01*
X0207932Y0017721D01*
X0207889Y0017712D01*
X0207845Y0017707D01*
X0207801Y0017705D01*
X0207757Y0017707D01*
X0207713Y0017712D01*
X0207670Y0017721D01*
X0207628Y0017734D01*
X0207586Y0017750D01*
X0207547Y0017769D01*
X0207509Y0017792D01*
X0207473Y0017818D01*
X0207439Y0017846D01*
X0207408Y0017877D01*
X0207380Y0017911D01*
X0207354Y0017947D01*
X0207331Y0017985D01*
X0207312Y0018025D01*
X0207296Y0018066D01*
X0207223Y0018282D02*
X0208378Y0019726D01*
X0208306Y0019943D02*
X0208290Y0019984D01*
X0208271Y0020024D01*
X0208248Y0020062D01*
X0208223Y0020098D01*
X0208194Y0020132D01*
X0208163Y0020163D01*
X0208129Y0020191D01*
X0208093Y0020217D01*
X0208055Y0020240D01*
X0208016Y0020259D01*
X0207974Y0020275D01*
X0207932Y0020288D01*
X0207889Y0020297D01*
X0207845Y0020302D01*
X0207801Y0020304D01*
X0207757Y0020302D01*
X0207713Y0020297D01*
X0207670Y0020288D01*
X0207628Y0020275D01*
X0207586Y0020259D01*
X0207547Y0020240D01*
X0207509Y0020217D01*
X0207473Y0020191D01*
X0207439Y0020163D01*
X0207408Y0020132D01*
X0207380Y0020098D01*
X0207354Y0020062D01*
X0207331Y0020024D01*
X0207312Y0019984D01*
X0207296Y0019943D01*
X0208306Y0019943D02*
X0208343Y0019863D01*
X0208377Y0019781D01*
X0208407Y0019698D01*
X0208434Y0019614D01*
X0208458Y0019529D01*
X0208478Y0019443D01*
X0208494Y0019356D01*
X0208507Y0019268D01*
X0208516Y0019181D01*
X0208521Y0019092D01*
X0208523Y0019004D01*
X0207078Y0019004D02*
X0207080Y0019092D01*
X0207085Y0019181D01*
X0207094Y0019268D01*
X0207107Y0019356D01*
X0207123Y0019443D01*
X0207143Y0019529D01*
X0207167Y0019614D01*
X0207194Y0019698D01*
X0207224Y0019781D01*
X0207258Y0019863D01*
X0207295Y0019943D01*
X0207078Y0019004D02*
X0207080Y0018916D01*
X0207085Y0018827D01*
X0207094Y0018740D01*
X0207107Y0018652D01*
X0207123Y0018565D01*
X0207143Y0018479D01*
X0207167Y0018394D01*
X0207194Y0018310D01*
X0207224Y0018227D01*
X0207258Y0018145D01*
X0207295Y0018065D01*
X0201349Y0017704D02*
X0201349Y0020304D01*
X0113531Y0063161D02*
X0112086Y0063161D01*
X0112808Y0063161D02*
X0112808Y0065761D01*
X0112086Y0065183D01*
X0110836Y0065039D02*
X0110836Y0063883D01*
X0110547Y0063739D02*
X0111125Y0063161D01*
X0110836Y0063883D02*
X0110834Y0063830D01*
X0110828Y0063778D01*
X0110819Y0063726D01*
X0110805Y0063675D01*
X0110788Y0063625D01*
X0110768Y0063577D01*
X0110744Y0063530D01*
X0110716Y0063485D01*
X0110685Y0063442D01*
X0110652Y0063401D01*
X0110615Y0063363D01*
X0110576Y0063328D01*
X0110534Y0063296D01*
X0110490Y0063267D01*
X0110444Y0063241D01*
X0110396Y0063219D01*
X0110347Y0063200D01*
X0110297Y0063184D01*
X0110245Y0063173D01*
X0110193Y0063165D01*
X0110140Y0063161D01*
X0110088Y0063161D01*
X0110035Y0063165D01*
X0109983Y0063173D01*
X0109931Y0063184D01*
X0109881Y0063200D01*
X0109832Y0063219D01*
X0109784Y0063241D01*
X0109738Y0063267D01*
X0109694Y0063296D01*
X0109652Y0063328D01*
X0109613Y0063363D01*
X0109576Y0063401D01*
X0109543Y0063442D01*
X0109512Y0063485D01*
X0109484Y0063530D01*
X0109460Y0063577D01*
X0109440Y0063625D01*
X0109423Y0063675D01*
X0109409Y0063726D01*
X0109400Y0063778D01*
X0109394Y0063830D01*
X0109392Y0063883D01*
X0109391Y0063883D02*
X0109391Y0065039D01*
X0109392Y0065039D02*
X0109394Y0065092D01*
X0109400Y0065144D01*
X0109409Y0065196D01*
X0109423Y0065247D01*
X0109440Y0065297D01*
X0109460Y0065345D01*
X0109484Y0065392D01*
X0109512Y0065437D01*
X0109543Y0065480D01*
X0109576Y0065521D01*
X0109613Y0065559D01*
X0109652Y0065594D01*
X0109694Y0065626D01*
X0109738Y0065655D01*
X0109784Y0065681D01*
X0109832Y0065703D01*
X0109881Y0065722D01*
X0109931Y0065738D01*
X0109983Y0065749D01*
X0110035Y0065757D01*
X0110088Y0065761D01*
X0110140Y0065761D01*
X0110193Y0065757D01*
X0110245Y0065749D01*
X0110297Y0065738D01*
X0110347Y0065722D01*
X0110396Y0065703D01*
X0110444Y0065681D01*
X0110490Y0065655D01*
X0110534Y0065626D01*
X0110576Y0065594D01*
X0110615Y0065559D01*
X0110652Y0065521D01*
X0110685Y0065480D01*
X0110716Y0065437D01*
X0110744Y0065392D01*
X0110768Y0065345D01*
X0110788Y0065297D01*
X0110805Y0065247D01*
X0110819Y0065196D01*
X0110828Y0065144D01*
X0110834Y0065092D01*
X0110836Y0065039D01*
X0074024Y0068884D02*
X0051024Y0068884D01*
X0051024Y0098884D01*
X0058524Y0098884D01*
X0058526Y0098758D01*
X0058532Y0098633D01*
X0058542Y0098508D01*
X0058556Y0098383D01*
X0058573Y0098258D01*
X0058595Y0098134D01*
X0058620Y0098011D01*
X0058650Y0097889D01*
X0058683Y0097768D01*
X0058720Y0097648D01*
X0058760Y0097529D01*
X0058805Y0097412D01*
X0058853Y0097295D01*
X0058905Y0097181D01*
X0058960Y0097068D01*
X0059019Y0096957D01*
X0059081Y0096848D01*
X0059147Y0096741D01*
X0059216Y0096636D01*
X0059288Y0096533D01*
X0059363Y0096432D01*
X0059442Y0096334D01*
X0059524Y0096239D01*
X0059608Y0096146D01*
X0059696Y0096056D01*
X0059786Y0095968D01*
X0059879Y0095884D01*
X0059974Y0095802D01*
X0060072Y0095723D01*
X0060173Y0095648D01*
X0060276Y0095576D01*
X0060381Y0095507D01*
X0060488Y0095441D01*
X0060597Y0095379D01*
X0060708Y0095320D01*
X0060821Y0095265D01*
X0060935Y0095213D01*
X0061052Y0095165D01*
X0061169Y0095120D01*
X0061288Y0095080D01*
X0061408Y0095043D01*
X0061529Y0095010D01*
X0061651Y0094980D01*
X0061774Y0094955D01*
X0061898Y0094933D01*
X0062023Y0094916D01*
X0062148Y0094902D01*
X0062273Y0094892D01*
X0062398Y0094886D01*
X0062524Y0094884D01*
X0062650Y0094886D01*
X0062775Y0094892D01*
X0062900Y0094902D01*
X0063025Y0094916D01*
X0063150Y0094933D01*
X0063274Y0094955D01*
X0063397Y0094980D01*
X0063519Y0095010D01*
X0063640Y0095043D01*
X0063760Y0095080D01*
X0063879Y0095120D01*
X0063996Y0095165D01*
X0064113Y0095213D01*
X0064227Y0095265D01*
X0064340Y0095320D01*
X0064451Y0095379D01*
X0064560Y0095441D01*
X0064667Y0095507D01*
X0064772Y0095576D01*
X0064875Y0095648D01*
X0064976Y0095723D01*
X0065074Y0095802D01*
X0065169Y0095884D01*
X0065262Y0095968D01*
X0065352Y0096056D01*
X0065440Y0096146D01*
X0065524Y0096239D01*
X0065606Y0096334D01*
X0065685Y0096432D01*
X0065760Y0096533D01*
X0065832Y0096636D01*
X0065901Y0096741D01*
X0065967Y0096848D01*
X0066029Y0096957D01*
X0066088Y0097068D01*
X0066143Y0097181D01*
X0066195Y0097295D01*
X0066243Y0097412D01*
X0066288Y0097529D01*
X0066328Y0097648D01*
X0066365Y0097768D01*
X0066398Y0097889D01*
X0066428Y0098011D01*
X0066453Y0098134D01*
X0066475Y0098258D01*
X0066492Y0098383D01*
X0066506Y0098508D01*
X0066516Y0098633D01*
X0066522Y0098758D01*
X0066524Y0098884D01*
X0074024Y0098884D01*
X0074024Y0068884D01*
X0025090Y0075119D02*
X0025088Y0075066D01*
X0025082Y0075014D01*
X0025073Y0074962D01*
X0025059Y0074911D01*
X0025042Y0074861D01*
X0025022Y0074813D01*
X0024998Y0074766D01*
X0024970Y0074721D01*
X0024939Y0074678D01*
X0024906Y0074637D01*
X0024869Y0074599D01*
X0024830Y0074564D01*
X0024788Y0074532D01*
X0024744Y0074503D01*
X0024698Y0074477D01*
X0024650Y0074455D01*
X0024601Y0074436D01*
X0024551Y0074420D01*
X0024499Y0074409D01*
X0024447Y0074401D01*
X0024394Y0074397D01*
X0024342Y0074397D01*
X0024289Y0074401D01*
X0024237Y0074409D01*
X0024185Y0074420D01*
X0024135Y0074436D01*
X0024086Y0074455D01*
X0024038Y0074477D01*
X0023992Y0074503D01*
X0023948Y0074532D01*
X0023906Y0074564D01*
X0023867Y0074599D01*
X0023830Y0074637D01*
X0023797Y0074678D01*
X0023766Y0074721D01*
X0023738Y0074766D01*
X0023714Y0074813D01*
X0023694Y0074861D01*
X0023677Y0074911D01*
X0023663Y0074962D01*
X0023654Y0075014D01*
X0023648Y0075066D01*
X0023646Y0075119D01*
X0023648Y0075172D01*
X0023654Y0075224D01*
X0023663Y0075276D01*
X0023677Y0075327D01*
X0023694Y0075377D01*
X0023714Y0075425D01*
X0023738Y0075472D01*
X0023766Y0075517D01*
X0023797Y0075560D01*
X0023830Y0075601D01*
X0023867Y0075639D01*
X0023906Y0075674D01*
X0023948Y0075706D01*
X0023992Y0075735D01*
X0024038Y0075761D01*
X0024086Y0075783D01*
X0024135Y0075802D01*
X0024185Y0075818D01*
X0024237Y0075829D01*
X0024289Y0075837D01*
X0024342Y0075841D01*
X0024394Y0075841D01*
X0024447Y0075837D01*
X0024499Y0075829D01*
X0024551Y0075818D01*
X0024601Y0075802D01*
X0024650Y0075783D01*
X0024698Y0075761D01*
X0024744Y0075735D01*
X0024788Y0075706D01*
X0024830Y0075674D01*
X0024869Y0075639D01*
X0024906Y0075601D01*
X0024939Y0075560D01*
X0024970Y0075517D01*
X0024998Y0075472D01*
X0025022Y0075425D01*
X0025042Y0075377D01*
X0025059Y0075327D01*
X0025073Y0075276D01*
X0025082Y0075224D01*
X0025088Y0075172D01*
X0025090Y0075119D01*
X0024946Y0076419D02*
X0024944Y0076372D01*
X0024939Y0076326D01*
X0024929Y0076281D01*
X0024916Y0076236D01*
X0024900Y0076192D01*
X0024880Y0076150D01*
X0024857Y0076110D01*
X0024830Y0076072D01*
X0024801Y0076036D01*
X0024768Y0076002D01*
X0024734Y0075971D01*
X0024696Y0075943D01*
X0024657Y0075918D01*
X0024616Y0075897D01*
X0024573Y0075879D01*
X0024529Y0075864D01*
X0024484Y0075853D01*
X0024438Y0075845D01*
X0024391Y0075841D01*
X0024345Y0075841D01*
X0024298Y0075845D01*
X0024252Y0075853D01*
X0024207Y0075864D01*
X0024163Y0075879D01*
X0024120Y0075897D01*
X0024079Y0075918D01*
X0024040Y0075943D01*
X0024002Y0075971D01*
X0023968Y0076002D01*
X0023935Y0076036D01*
X0023906Y0076072D01*
X0023879Y0076110D01*
X0023856Y0076150D01*
X0023836Y0076192D01*
X0023820Y0076236D01*
X0023807Y0076281D01*
X0023797Y0076326D01*
X0023792Y0076372D01*
X0023790Y0076419D01*
X0023792Y0076466D01*
X0023797Y0076512D01*
X0023807Y0076557D01*
X0023820Y0076602D01*
X0023836Y0076646D01*
X0023856Y0076688D01*
X0023879Y0076728D01*
X0023906Y0076766D01*
X0023935Y0076802D01*
X0023968Y0076836D01*
X0024002Y0076867D01*
X0024040Y0076895D01*
X0024079Y0076920D01*
X0024120Y0076941D01*
X0024163Y0076959D01*
X0024207Y0076974D01*
X0024252Y0076985D01*
X0024298Y0076993D01*
X0024345Y0076997D01*
X0024391Y0076997D01*
X0024438Y0076993D01*
X0024484Y0076985D01*
X0024529Y0076974D01*
X0024573Y0076959D01*
X0024616Y0076941D01*
X0024657Y0076920D01*
X0024696Y0076895D01*
X0024734Y0076867D01*
X0024768Y0076836D01*
X0024801Y0076802D01*
X0024830Y0076766D01*
X0024857Y0076728D01*
X0024880Y0076688D01*
X0024900Y0076646D01*
X0024916Y0076602D01*
X0024929Y0076557D01*
X0024939Y0076512D01*
X0024944Y0076466D01*
X0024946Y0076419D01*
X0022241Y0074397D02*
X0021663Y0075553D01*
X0021519Y0075553D02*
X0020796Y0075553D01*
X0021519Y0075553D02*
X0021572Y0075555D01*
X0021624Y0075561D01*
X0021676Y0075570D01*
X0021727Y0075584D01*
X0021777Y0075601D01*
X0021825Y0075621D01*
X0021872Y0075645D01*
X0021917Y0075673D01*
X0021960Y0075704D01*
X0022001Y0075737D01*
X0022039Y0075774D01*
X0022074Y0075813D01*
X0022106Y0075855D01*
X0022135Y0075899D01*
X0022161Y0075945D01*
X0022183Y0075993D01*
X0022202Y0076042D01*
X0022218Y0076092D01*
X0022229Y0076144D01*
X0022237Y0076196D01*
X0022241Y0076249D01*
X0022241Y0076301D01*
X0022237Y0076354D01*
X0022229Y0076406D01*
X0022218Y0076458D01*
X0022202Y0076508D01*
X0022183Y0076557D01*
X0022161Y0076605D01*
X0022135Y0076651D01*
X0022106Y0076695D01*
X0022074Y0076737D01*
X0022039Y0076776D01*
X0022001Y0076813D01*
X0021960Y0076846D01*
X0021917Y0076877D01*
X0021872Y0076905D01*
X0021825Y0076929D01*
X0021777Y0076949D01*
X0021727Y0076966D01*
X0021676Y0076980D01*
X0021624Y0076989D01*
X0021572Y0076995D01*
X0021519Y0076997D01*
X0020796Y0076997D01*
X0020796Y0074397D01*
D15*
X0016067Y0078372D02*
X0030240Y0078372D01*
X0030240Y0085458D01*
X0016067Y0085458D01*
X0016067Y0078372D01*
X0093538Y0062862D02*
X0093538Y0058693D01*
X0098904Y0057662D02*
X0100891Y0057662D01*
X0106313Y0058693D02*
X0106313Y0062862D01*
X0124264Y0062915D02*
X0124264Y0100915D01*
X0125264Y0101915D01*
X0136764Y0101915D01*
X0199892Y0091677D02*
X0199892Y0089343D01*
X0199892Y0090510D02*
X0204092Y0090510D01*
X0202925Y0087327D02*
X0199892Y0087327D01*
X0202925Y0087327D02*
X0202992Y0087325D01*
X0203058Y0087319D01*
X0203124Y0087310D01*
X0203189Y0087297D01*
X0203254Y0087280D01*
X0203317Y0087259D01*
X0203379Y0087235D01*
X0203440Y0087207D01*
X0203499Y0087176D01*
X0203556Y0087142D01*
X0203611Y0087104D01*
X0203664Y0087063D01*
X0203714Y0087020D01*
X0203762Y0086973D01*
X0203807Y0086924D01*
X0203849Y0086873D01*
X0203888Y0086819D01*
X0203924Y0086763D01*
X0203957Y0086705D01*
X0203987Y0086645D01*
X0204012Y0086583D01*
X0204035Y0086521D01*
X0204054Y0086457D01*
X0204069Y0086392D01*
X0204080Y0086326D01*
X0204088Y0086260D01*
X0204092Y0086193D01*
X0204092Y0086127D01*
X0204088Y0086060D01*
X0204080Y0085994D01*
X0204069Y0085928D01*
X0204054Y0085863D01*
X0204035Y0085799D01*
X0204012Y0085737D01*
X0203987Y0085675D01*
X0203957Y0085615D01*
X0203924Y0085557D01*
X0203888Y0085501D01*
X0203849Y0085447D01*
X0203807Y0085396D01*
X0203762Y0085347D01*
X0203714Y0085300D01*
X0203664Y0085257D01*
X0203611Y0085216D01*
X0203556Y0085178D01*
X0203499Y0085144D01*
X0203440Y0085113D01*
X0203379Y0085085D01*
X0203317Y0085061D01*
X0203254Y0085040D01*
X0203189Y0085023D01*
X0203124Y0085010D01*
X0203058Y0085001D01*
X0202992Y0084995D01*
X0202925Y0084993D01*
X0199892Y0084993D01*
X0201059Y0082677D02*
X0202925Y0082677D01*
X0202992Y0082675D01*
X0203058Y0082669D01*
X0203124Y0082660D01*
X0203189Y0082647D01*
X0203254Y0082630D01*
X0203317Y0082609D01*
X0203379Y0082585D01*
X0203440Y0082557D01*
X0203499Y0082526D01*
X0203556Y0082492D01*
X0203611Y0082454D01*
X0203664Y0082413D01*
X0203714Y0082370D01*
X0203762Y0082323D01*
X0203807Y0082274D01*
X0203849Y0082223D01*
X0203888Y0082169D01*
X0203924Y0082113D01*
X0203957Y0082055D01*
X0203987Y0081995D01*
X0204012Y0081933D01*
X0204035Y0081871D01*
X0204054Y0081807D01*
X0204069Y0081742D01*
X0204080Y0081676D01*
X0204088Y0081610D01*
X0204092Y0081543D01*
X0204092Y0081477D01*
X0204088Y0081410D01*
X0204080Y0081344D01*
X0204069Y0081278D01*
X0204054Y0081213D01*
X0204035Y0081149D01*
X0204012Y0081087D01*
X0203987Y0081025D01*
X0203957Y0080965D01*
X0203924Y0080907D01*
X0203888Y0080851D01*
X0203849Y0080797D01*
X0203807Y0080746D01*
X0203762Y0080697D01*
X0203714Y0080650D01*
X0203664Y0080607D01*
X0203611Y0080566D01*
X0203556Y0080528D01*
X0203499Y0080494D01*
X0203440Y0080463D01*
X0203379Y0080435D01*
X0203317Y0080411D01*
X0203254Y0080390D01*
X0203189Y0080373D01*
X0203124Y0080360D01*
X0203058Y0080351D01*
X0202992Y0080345D01*
X0202925Y0080343D01*
X0201059Y0080343D01*
X0200992Y0080345D01*
X0200926Y0080351D01*
X0200860Y0080360D01*
X0200795Y0080373D01*
X0200730Y0080390D01*
X0200667Y0080411D01*
X0200605Y0080435D01*
X0200544Y0080463D01*
X0200485Y0080494D01*
X0200428Y0080528D01*
X0200373Y0080566D01*
X0200320Y0080607D01*
X0200270Y0080650D01*
X0200222Y0080697D01*
X0200177Y0080746D01*
X0200135Y0080797D01*
X0200096Y0080851D01*
X0200060Y0080907D01*
X0200027Y0080965D01*
X0199997Y0081025D01*
X0199972Y0081087D01*
X0199949Y0081149D01*
X0199930Y0081213D01*
X0199915Y0081278D01*
X0199904Y0081344D01*
X0199896Y0081410D01*
X0199892Y0081477D01*
X0199892Y0081543D01*
X0199896Y0081610D01*
X0199904Y0081676D01*
X0199915Y0081742D01*
X0199930Y0081807D01*
X0199949Y0081871D01*
X0199972Y0081933D01*
X0199997Y0081995D01*
X0200027Y0082055D01*
X0200060Y0082113D01*
X0200096Y0082169D01*
X0200135Y0082223D01*
X0200177Y0082274D01*
X0200222Y0082323D01*
X0200270Y0082370D01*
X0200320Y0082413D01*
X0200373Y0082454D01*
X0200428Y0082492D01*
X0200485Y0082526D01*
X0200544Y0082557D01*
X0200605Y0082585D01*
X0200667Y0082609D01*
X0200730Y0082630D01*
X0200795Y0082647D01*
X0200860Y0082660D01*
X0200926Y0082669D01*
X0200992Y0082675D01*
X0201059Y0082677D01*
X0204559Y0078393D02*
X0204559Y0076527D01*
X0204092Y0074840D02*
X0204092Y0073907D01*
X0204090Y0073846D01*
X0204084Y0073785D01*
X0204074Y0073725D01*
X0204060Y0073666D01*
X0204042Y0073607D01*
X0204021Y0073550D01*
X0203996Y0073494D01*
X0203967Y0073441D01*
X0203935Y0073389D01*
X0203899Y0073339D01*
X0203860Y0073292D01*
X0203819Y0073247D01*
X0203774Y0073206D01*
X0203727Y0073167D01*
X0203677Y0073131D01*
X0203626Y0073099D01*
X0203572Y0073070D01*
X0203516Y0073045D01*
X0203459Y0073024D01*
X0203400Y0073006D01*
X0203341Y0072992D01*
X0203281Y0072982D01*
X0203220Y0072976D01*
X0203159Y0072974D01*
X0200825Y0072974D01*
X0200764Y0072976D01*
X0200703Y0072982D01*
X0200643Y0072992D01*
X0200584Y0073006D01*
X0200525Y0073024D01*
X0200468Y0073045D01*
X0200412Y0073070D01*
X0200359Y0073099D01*
X0200307Y0073131D01*
X0200257Y0073167D01*
X0200210Y0073206D01*
X0200165Y0073247D01*
X0200124Y0073292D01*
X0200085Y0073339D01*
X0200049Y0073389D01*
X0200017Y0073440D01*
X0199988Y0073494D01*
X0199963Y0073550D01*
X0199942Y0073607D01*
X0199924Y0073666D01*
X0199910Y0073725D01*
X0199900Y0073785D01*
X0199894Y0073846D01*
X0199892Y0073907D01*
X0199892Y0074840D01*
X0199892Y0069660D02*
X0204092Y0071060D01*
X0203042Y0070710D02*
X0203042Y0068610D01*
X0204092Y0068260D02*
X0199892Y0069660D01*
X0213311Y0063805D02*
X0238902Y0063805D01*
X0238902Y0107899D01*
X0242839Y0107899D01*
X0242839Y0063805D01*
X0238902Y0063805D01*
X0238902Y0056718D02*
X0238902Y0012624D01*
X0213311Y0012624D01*
X0213311Y0056718D01*
X0238902Y0056718D01*
X0242839Y0056718D01*
X0242839Y0012624D01*
X0238902Y0012624D01*
X0197957Y0014986D02*
X0197957Y0022860D01*
X0179059Y0022860D01*
X0179059Y0014986D01*
X0197957Y0014986D01*
X0197957Y0026797D02*
X0179059Y0026797D01*
X0179059Y0034671D01*
X0197957Y0034671D01*
X0197957Y0026797D01*
X0197957Y0038608D02*
X0179059Y0038608D01*
X0179059Y0046482D01*
X0197957Y0046482D01*
X0197957Y0038608D01*
X0197957Y0050419D02*
X0179059Y0050419D01*
X0179059Y0058293D01*
X0197957Y0058293D01*
X0197957Y0050419D01*
X0172760Y0040183D02*
X0164886Y0040183D01*
X0164886Y0021285D01*
X0172760Y0021285D01*
X0172760Y0040183D01*
X0164504Y0040531D02*
X0164502Y0040475D01*
X0164496Y0040419D01*
X0164487Y0040364D01*
X0164473Y0040309D01*
X0164456Y0040255D01*
X0164436Y0040203D01*
X0164412Y0040152D01*
X0164384Y0040103D01*
X0164353Y0040056D01*
X0164319Y0040012D01*
X0164282Y0039969D01*
X0164243Y0039930D01*
X0164200Y0039893D01*
X0164156Y0039859D01*
X0164109Y0039828D01*
X0164060Y0039800D01*
X0164009Y0039776D01*
X0163957Y0039756D01*
X0163903Y0039739D01*
X0163848Y0039725D01*
X0163793Y0039716D01*
X0163737Y0039710D01*
X0163681Y0039708D01*
X0163681Y0039707D02*
X0163617Y0039709D01*
X0163554Y0039715D01*
X0163491Y0039725D01*
X0163429Y0039738D01*
X0163368Y0039756D01*
X0163308Y0039777D01*
X0163249Y0039802D01*
X0163193Y0039830D01*
X0163138Y0039862D01*
X0163085Y0039897D01*
X0163034Y0039936D01*
X0162986Y0039977D01*
X0162940Y0040022D01*
X0162897Y0040069D01*
X0162858Y0040119D01*
X0162035Y0040531D02*
X0161979Y0040529D01*
X0161923Y0040523D01*
X0161868Y0040514D01*
X0161813Y0040500D01*
X0161759Y0040483D01*
X0161707Y0040463D01*
X0161656Y0040439D01*
X0161607Y0040411D01*
X0161560Y0040380D01*
X0161516Y0040346D01*
X0161473Y0040309D01*
X0161434Y0040270D01*
X0161397Y0040227D01*
X0161363Y0040183D01*
X0161332Y0040136D01*
X0161304Y0040087D01*
X0161280Y0040036D01*
X0161260Y0039984D01*
X0161243Y0039930D01*
X0161229Y0039875D01*
X0161220Y0039820D01*
X0161214Y0039764D01*
X0161212Y0039708D01*
X0162035Y0040531D02*
X0162099Y0040529D01*
X0162162Y0040523D01*
X0162225Y0040513D01*
X0162287Y0040500D01*
X0162348Y0040482D01*
X0162408Y0040461D01*
X0162467Y0040436D01*
X0162523Y0040408D01*
X0162578Y0040376D01*
X0162631Y0040341D01*
X0162682Y0040302D01*
X0162730Y0040261D01*
X0162776Y0040216D01*
X0162819Y0040169D01*
X0162858Y0040119D01*
X0162888Y0019288D02*
X0162928Y0019238D01*
X0162971Y0019191D01*
X0163016Y0019147D01*
X0163064Y0019105D01*
X0163115Y0019067D01*
X0163168Y0019031D01*
X0163223Y0018999D01*
X0163280Y0018971D01*
X0163339Y0018946D01*
X0163399Y0018925D01*
X0163460Y0018907D01*
X0163522Y0018894D01*
X0163585Y0018884D01*
X0163648Y0018878D01*
X0163712Y0018876D01*
X0163768Y0018878D01*
X0163824Y0018884D01*
X0163880Y0018893D01*
X0163934Y0018907D01*
X0163988Y0018924D01*
X0164040Y0018944D01*
X0164091Y0018968D01*
X0164140Y0018996D01*
X0164187Y0019027D01*
X0164232Y0019061D01*
X0164274Y0019098D01*
X0164314Y0019138D01*
X0164351Y0019180D01*
X0164385Y0019225D01*
X0164416Y0019272D01*
X0164444Y0019321D01*
X0164468Y0019372D01*
X0164488Y0019424D01*
X0164505Y0019478D01*
X0164519Y0019532D01*
X0164528Y0019588D01*
X0164534Y0019644D01*
X0164536Y0019700D01*
X0162063Y0019700D02*
X0162007Y0019698D01*
X0161951Y0019692D01*
X0161895Y0019683D01*
X0161841Y0019669D01*
X0161787Y0019652D01*
X0161735Y0019632D01*
X0161684Y0019608D01*
X0161635Y0019580D01*
X0161588Y0019549D01*
X0161543Y0019515D01*
X0161501Y0019478D01*
X0161461Y0019438D01*
X0161424Y0019396D01*
X0161390Y0019351D01*
X0161359Y0019304D01*
X0161331Y0019255D01*
X0161307Y0019204D01*
X0161287Y0019152D01*
X0161270Y0019098D01*
X0161256Y0019044D01*
X0161247Y0018988D01*
X0161241Y0018932D01*
X0161239Y0018876D01*
X0162063Y0019700D02*
X0162127Y0019698D01*
X0162190Y0019692D01*
X0162253Y0019682D01*
X0162315Y0019669D01*
X0162376Y0019651D01*
X0162436Y0019630D01*
X0162495Y0019605D01*
X0162552Y0019577D01*
X0162607Y0019545D01*
X0162660Y0019509D01*
X0162711Y0019471D01*
X0162759Y0019429D01*
X0162804Y0019385D01*
X0162847Y0019338D01*
X0162887Y0019288D01*
X0142403Y0011561D02*
X0139930Y0011561D01*
X0142403Y0011561D02*
X0142483Y0011559D01*
X0142562Y0011553D01*
X0142641Y0011544D01*
X0142720Y0011530D01*
X0142798Y0011513D01*
X0142875Y0011492D01*
X0142950Y0011468D01*
X0143025Y0011439D01*
X0143098Y0011407D01*
X0143169Y0011372D01*
X0143239Y0011333D01*
X0143307Y0011291D01*
X0143372Y0011246D01*
X0143436Y0011198D01*
X0143496Y0011146D01*
X0143555Y0011092D01*
X0143611Y0011035D01*
X0143663Y0010975D01*
X0143713Y0010913D01*
X0143760Y0010849D01*
X0143804Y0010782D01*
X0143844Y0010713D01*
X0143881Y0010643D01*
X0143915Y0010571D01*
X0143945Y0010497D01*
X0143971Y0010422D01*
X0143994Y0010345D01*
X0144013Y0010268D01*
X0144028Y0010190D01*
X0144040Y0010111D01*
X0144048Y0010031D01*
X0144052Y0009952D01*
X0144052Y0009872D01*
X0144048Y0009793D01*
X0144040Y0009713D01*
X0144028Y0009634D01*
X0144013Y0009556D01*
X0143994Y0009479D01*
X0143971Y0009402D01*
X0143945Y0009327D01*
X0143915Y0009253D01*
X0143881Y0009181D01*
X0143844Y0009111D01*
X0143804Y0009042D01*
X0143760Y0008975D01*
X0143713Y0008911D01*
X0143663Y0008849D01*
X0143611Y0008789D01*
X0143555Y0008732D01*
X0143496Y0008678D01*
X0143436Y0008626D01*
X0143372Y0008578D01*
X0143307Y0008533D01*
X0143239Y0008491D01*
X0143169Y0008452D01*
X0143098Y0008417D01*
X0143025Y0008385D01*
X0142950Y0008356D01*
X0142875Y0008332D01*
X0142798Y0008311D01*
X0142720Y0008294D01*
X0142641Y0008280D01*
X0142562Y0008271D01*
X0142483Y0008265D01*
X0142403Y0008263D01*
X0140754Y0008263D01*
X0141991Y0008262D02*
X0142081Y0008260D01*
X0142171Y0008254D01*
X0142260Y0008244D01*
X0142349Y0008231D01*
X0142437Y0008213D01*
X0142524Y0008192D01*
X0142611Y0008167D01*
X0142696Y0008138D01*
X0142780Y0008105D01*
X0142862Y0008069D01*
X0142943Y0008029D01*
X0143022Y0007986D01*
X0143098Y0007939D01*
X0143173Y0007889D01*
X0143246Y0007836D01*
X0143316Y0007780D01*
X0143383Y0007721D01*
X0143448Y0007658D01*
X0143511Y0007593D01*
X0143570Y0007526D01*
X0143626Y0007456D01*
X0143679Y0007383D01*
X0143729Y0007308D01*
X0143776Y0007231D01*
X0143819Y0007153D01*
X0143859Y0007072D01*
X0143895Y0006990D01*
X0143928Y0006906D01*
X0143957Y0006821D01*
X0143982Y0006734D01*
X0144003Y0006647D01*
X0144021Y0006559D01*
X0144034Y0006470D01*
X0144044Y0006381D01*
X0144050Y0006291D01*
X0144052Y0006201D01*
X0144050Y0006111D01*
X0144044Y0006021D01*
X0144034Y0005932D01*
X0144021Y0005843D01*
X0144003Y0005755D01*
X0143982Y0005668D01*
X0143957Y0005581D01*
X0143928Y0005496D01*
X0143895Y0005412D01*
X0143859Y0005330D01*
X0143819Y0005249D01*
X0143776Y0005170D01*
X0143729Y0005094D01*
X0143679Y0005019D01*
X0143626Y0004946D01*
X0143570Y0004876D01*
X0143511Y0004809D01*
X0143448Y0004744D01*
X0143383Y0004681D01*
X0143316Y0004622D01*
X0143246Y0004566D01*
X0143173Y0004513D01*
X0143098Y0004463D01*
X0143022Y0004416D01*
X0142943Y0004373D01*
X0142862Y0004333D01*
X0142780Y0004297D01*
X0142696Y0004264D01*
X0142611Y0004235D01*
X0142524Y0004210D01*
X0142437Y0004189D01*
X0142349Y0004171D01*
X0142260Y0004158D01*
X0142171Y0004148D01*
X0142081Y0004142D01*
X0141991Y0004140D01*
X0139930Y0004140D01*
X0136782Y0006201D02*
X0136782Y0011561D01*
X0132660Y0011561D02*
X0132660Y0006201D01*
X0132662Y0006111D01*
X0132668Y0006021D01*
X0132678Y0005932D01*
X0132691Y0005843D01*
X0132709Y0005755D01*
X0132730Y0005668D01*
X0132755Y0005581D01*
X0132784Y0005496D01*
X0132817Y0005412D01*
X0132853Y0005330D01*
X0132893Y0005249D01*
X0132936Y0005171D01*
X0132983Y0005094D01*
X0133033Y0005019D01*
X0133086Y0004946D01*
X0133142Y0004876D01*
X0133201Y0004809D01*
X0133264Y0004744D01*
X0133329Y0004681D01*
X0133396Y0004622D01*
X0133466Y0004566D01*
X0133539Y0004513D01*
X0133614Y0004463D01*
X0133691Y0004416D01*
X0133769Y0004373D01*
X0133850Y0004333D01*
X0133932Y0004297D01*
X0134016Y0004264D01*
X0134101Y0004235D01*
X0134188Y0004210D01*
X0134275Y0004189D01*
X0134363Y0004171D01*
X0134452Y0004158D01*
X0134541Y0004148D01*
X0134631Y0004142D01*
X0134721Y0004140D01*
X0134811Y0004142D01*
X0134901Y0004148D01*
X0134990Y0004158D01*
X0135079Y0004171D01*
X0135167Y0004189D01*
X0135254Y0004210D01*
X0135341Y0004235D01*
X0135426Y0004264D01*
X0135510Y0004297D01*
X0135592Y0004333D01*
X0135673Y0004373D01*
X0135752Y0004416D01*
X0135828Y0004463D01*
X0135903Y0004513D01*
X0135976Y0004566D01*
X0136046Y0004622D01*
X0136113Y0004681D01*
X0136178Y0004744D01*
X0136241Y0004809D01*
X0136300Y0004876D01*
X0136356Y0004946D01*
X0136409Y0005019D01*
X0136459Y0005094D01*
X0136506Y0005170D01*
X0136549Y0005249D01*
X0136589Y0005330D01*
X0136625Y0005412D01*
X0136658Y0005496D01*
X0136687Y0005581D01*
X0136712Y0005668D01*
X0136733Y0005755D01*
X0136751Y0005843D01*
X0136764Y0005932D01*
X0136774Y0006021D01*
X0136780Y0006111D01*
X0136782Y0006201D01*
X0116299Y0019998D02*
X0111359Y0019998D01*
X0107012Y0017348D02*
X0092839Y0017348D01*
X0092839Y0024435D01*
X0107012Y0024435D01*
X0107012Y0017348D01*
X0085358Y0017348D02*
X0071185Y0017348D01*
X0071185Y0024435D01*
X0085358Y0024435D01*
X0085358Y0017348D01*
X0090476Y0030734D02*
X0090476Y0038608D01*
X0109374Y0038608D01*
X0109374Y0030734D01*
X0090476Y0030734D01*
X0111019Y0039936D02*
X0115967Y0039936D01*
X0113493Y0037462D02*
X0113493Y0042410D01*
X0125264Y0061915D02*
X0136764Y0061915D01*
X0125264Y0061915D02*
X0124264Y0062915D01*
X0053862Y0024435D02*
X0053862Y0017348D01*
X0039689Y0017348D01*
X0039689Y0024435D01*
X0053862Y0024435D01*
X0213311Y0063805D02*
X0213311Y0107899D01*
X0238902Y0107899D01*
D16*
X0126664Y0100115D03*
D17*
X0140014Y0081915D03*
D18*
X0137514Y0064665D03*
X0137514Y0099165D03*
D19*
X0137514Y0086915D03*
X0137514Y0076915D03*
D20*
X0117814Y0092652D02*
X0117814Y0094485D01*
X0117814Y0093568D02*
X0121114Y0093568D01*
X0121114Y0096169D02*
X0117814Y0096169D01*
X0117814Y0097085D01*
X0117813Y0097085D02*
X0117815Y0097144D01*
X0117821Y0097202D01*
X0117830Y0097260D01*
X0117843Y0097318D01*
X0117860Y0097374D01*
X0117880Y0097429D01*
X0117904Y0097483D01*
X0117931Y0097535D01*
X0117961Y0097585D01*
X0117995Y0097633D01*
X0118032Y0097679D01*
X0118071Y0097723D01*
X0118114Y0097764D01*
X0118158Y0097802D01*
X0118205Y0097837D01*
X0118255Y0097869D01*
X0118306Y0097898D01*
X0118359Y0097924D01*
X0118413Y0097946D01*
X0118469Y0097964D01*
X0118526Y0097979D01*
X0118584Y0097990D01*
X0118642Y0097998D01*
X0118701Y0098002D01*
X0118759Y0098002D01*
X0118818Y0097998D01*
X0118876Y0097990D01*
X0118934Y0097979D01*
X0118991Y0097964D01*
X0119047Y0097946D01*
X0119101Y0097924D01*
X0119154Y0097898D01*
X0119205Y0097869D01*
X0119255Y0097837D01*
X0119302Y0097802D01*
X0119346Y0097764D01*
X0119389Y0097723D01*
X0119428Y0097679D01*
X0119465Y0097633D01*
X0119499Y0097585D01*
X0119529Y0097535D01*
X0119556Y0097483D01*
X0119580Y0097429D01*
X0119600Y0097374D01*
X0119617Y0097318D01*
X0119630Y0097260D01*
X0119639Y0097202D01*
X0119645Y0097144D01*
X0119647Y0097085D01*
X0119647Y0096169D01*
X0119647Y0097269D02*
X0121114Y0098002D01*
X0121114Y0099732D02*
X0121114Y0101565D01*
X0121114Y0100648D02*
X0117814Y0100648D01*
X0118547Y0099732D01*
D21*
X0033185Y0075104D02*
X0033185Y0035104D01*
X0011185Y0035104D01*
X0011185Y0040104D01*
X0016185Y0040104D01*
X0016185Y0070104D01*
X0011185Y0070104D01*
X0011185Y0075104D01*
X0033185Y0075104D01*
X0011185Y0070104D02*
X0011185Y0040104D01*
X0026561Y0056669D02*
X0028039Y0056669D01*
X0028078Y0056667D01*
X0028117Y0056662D01*
X0028154Y0056653D01*
X0028191Y0056641D01*
X0028227Y0056625D01*
X0028261Y0056606D01*
X0028293Y0056584D01*
X0028323Y0056559D01*
X0028351Y0056531D01*
X0028376Y0056501D01*
X0028398Y0056469D01*
X0028417Y0056435D01*
X0028433Y0056399D01*
X0028445Y0056362D01*
X0028454Y0056325D01*
X0028459Y0056286D01*
X0028461Y0056247D01*
X0028461Y0056036D01*
X0028461Y0057830D02*
X0028461Y0058886D01*
X0028461Y0058358D02*
X0026561Y0058358D01*
X0026983Y0057830D01*
X0092925Y0048301D02*
X0092925Y0042301D01*
X0106925Y0042301D01*
X0106925Y0048301D01*
X0092925Y0048301D01*
X0218878Y0040500D02*
X0220778Y0040500D01*
X0218878Y0039445D01*
X0220778Y0039445D01*
X0220778Y0038384D02*
X0220778Y0037961D01*
X0220778Y0038173D02*
X0218878Y0038173D01*
X0218878Y0038384D02*
X0218878Y0037961D01*
X0220989Y0037083D02*
X0220989Y0036238D01*
X0220778Y0035382D02*
X0220778Y0034960D01*
X0220777Y0034960D02*
X0220775Y0034921D01*
X0220770Y0034882D01*
X0220761Y0034845D01*
X0220749Y0034808D01*
X0220733Y0034772D01*
X0220714Y0034738D01*
X0220692Y0034706D01*
X0220667Y0034676D01*
X0220639Y0034648D01*
X0220609Y0034623D01*
X0220577Y0034601D01*
X0220543Y0034582D01*
X0220507Y0034566D01*
X0220470Y0034554D01*
X0220433Y0034545D01*
X0220394Y0034540D01*
X0220355Y0034538D01*
X0220355Y0034537D02*
X0219300Y0034537D01*
X0219300Y0034538D02*
X0219261Y0034540D01*
X0219222Y0034545D01*
X0219185Y0034554D01*
X0219148Y0034566D01*
X0219112Y0034582D01*
X0219078Y0034601D01*
X0219046Y0034623D01*
X0219016Y0034648D01*
X0218988Y0034676D01*
X0218963Y0034706D01*
X0218941Y0034738D01*
X0218922Y0034772D01*
X0218907Y0034808D01*
X0218894Y0034844D01*
X0218885Y0034882D01*
X0218880Y0034921D01*
X0218878Y0034960D01*
X0218878Y0035382D01*
X0220303Y0033392D02*
X0220303Y0032442D01*
X0220778Y0032283D02*
X0218878Y0032917D01*
X0220778Y0033550D01*
D22*
X0097563Y0045301D03*
D23*
X0097549Y0049288D02*
X0097549Y0050788D01*
X0097132Y0050455D01*
X0096478Y0050371D02*
X0096478Y0049705D01*
X0096476Y0049667D01*
X0096471Y0049628D01*
X0096462Y0049591D01*
X0096450Y0049554D01*
X0096434Y0049519D01*
X0096416Y0049485D01*
X0096394Y0049454D01*
X0096369Y0049424D01*
X0096342Y0049397D01*
X0096312Y0049372D01*
X0096281Y0049350D01*
X0096247Y0049332D01*
X0096212Y0049316D01*
X0096175Y0049304D01*
X0096138Y0049295D01*
X0096099Y0049290D01*
X0096061Y0049288D01*
X0095644Y0049288D01*
X0095644Y0050788D01*
X0096061Y0050788D01*
X0096099Y0050786D01*
X0096138Y0050781D01*
X0096175Y0050772D01*
X0096212Y0050760D01*
X0096247Y0050744D01*
X0096281Y0050726D01*
X0096312Y0050704D01*
X0096342Y0050679D01*
X0096369Y0050652D01*
X0096394Y0050622D01*
X0096416Y0050591D01*
X0096434Y0050557D01*
X0096450Y0050522D01*
X0096462Y0050485D01*
X0096471Y0050448D01*
X0096476Y0050409D01*
X0096478Y0050371D01*
X0097132Y0049288D02*
X0097966Y0049288D01*
M02*
