G75*
%MOIN*%
%OFA0B0*%
%FSLAX25Y25*%
%IPPOS*%
%LPD*%
%AMOC8*
5,1,8,0,0,1.08239X$1,22.5*
%
%ADD10C,0.05200*%
%ADD11R,0.06299X0.07087*%
%ADD12C,0.06000*%
%ADD13R,0.05118X0.05906*%
%ADD14R,0.11024X0.05512*%
%ADD15R,0.04724X0.05512*%
%ADD16R,0.05906X0.03937*%
%ADD17R,0.08800X0.04900*%
%ADD18R,0.07087X0.06299*%
%ADD19R,0.07400X0.07400*%
%ADD20C,0.07400*%
%ADD21R,0.08000X0.08000*%
%ADD22C,0.08000*%
%ADD23C,0.01000*%
%ADD24C,0.02978*%
%ADD25C,0.01600*%
%ADD26C,0.05906*%
D10*
X0042324Y0036482D02*
X0047524Y0036482D01*
X0047524Y0046482D02*
X0042324Y0046482D01*
X0042324Y0056482D02*
X0047524Y0056482D01*
X0077524Y0056482D02*
X0082724Y0056482D01*
X0082724Y0046482D02*
X0077524Y0046482D01*
X0077524Y0036482D02*
X0082724Y0036482D01*
X0082724Y0073884D02*
X0077524Y0073884D01*
X0047524Y0073884D02*
X0042324Y0073884D01*
X0042324Y0083884D02*
X0047524Y0083884D01*
X0047524Y0093884D02*
X0042324Y0093884D01*
X0077524Y0093884D02*
X0082724Y0093884D01*
D11*
X0182996Y0054356D03*
X0194020Y0054356D03*
X0194020Y0042545D03*
X0182996Y0042545D03*
X0182996Y0030734D03*
X0194020Y0030734D03*
X0194020Y0018923D03*
X0182996Y0018923D03*
X0105437Y0034671D03*
X0094413Y0034671D03*
D12*
X0128264Y0071915D02*
X0134264Y0071915D01*
X0134264Y0081915D02*
X0128264Y0081915D01*
X0128264Y0091915D02*
X0134264Y0091915D01*
D13*
X0026894Y0081915D03*
X0019413Y0081915D03*
X0043035Y0020892D03*
X0050516Y0020892D03*
X0074531Y0020892D03*
X0082012Y0020892D03*
X0096185Y0020892D03*
X0103665Y0020892D03*
D14*
X0099925Y0065380D03*
D15*
X0095594Y0055143D03*
X0104256Y0055143D03*
D16*
X0107799Y0045301D03*
X0092051Y0045301D03*
D17*
X0121995Y0040734D03*
X0156595Y0040734D03*
X0156595Y0020734D03*
X0121995Y0020734D03*
D18*
X0168823Y0025222D03*
X0168823Y0036246D03*
D19*
X0021185Y0070104D03*
D20*
X0021185Y0060104D03*
X0021185Y0050104D03*
X0021185Y0040104D03*
D21*
X0229846Y0024829D03*
X0229846Y0076010D03*
D22*
X0229846Y0095695D03*
X0229846Y0044514D03*
D23*
X0029827Y0016229D02*
X0029146Y0015549D01*
X0056618Y0015549D01*
X0056618Y0024731D01*
X0054175Y0022288D01*
X0054175Y0017483D01*
X0053530Y0016839D01*
X0047501Y0016839D01*
X0046857Y0017483D01*
X0046857Y0024300D01*
X0047501Y0024944D01*
X0052306Y0024944D01*
X0056618Y0029257D01*
X0056618Y0042645D01*
X0054381Y0044882D01*
X0050866Y0044882D01*
X0050660Y0044386D01*
X0049620Y0043345D01*
X0048260Y0042782D01*
X0041588Y0042782D01*
X0040228Y0043345D01*
X0039187Y0044386D01*
X0038982Y0044882D01*
X0036021Y0044882D01*
X0029643Y0038504D01*
X0025718Y0038504D01*
X0025254Y0037385D01*
X0023904Y0036035D01*
X0022140Y0035304D01*
X0020230Y0035304D01*
X0018466Y0036035D01*
X0017116Y0037385D01*
X0016385Y0039149D01*
X0016385Y0041059D01*
X0017116Y0042823D01*
X0018466Y0044173D01*
X0020230Y0044904D01*
X0022140Y0044904D01*
X0023904Y0044173D01*
X0025254Y0042823D01*
X0025718Y0041704D01*
X0028318Y0041704D01*
X0034696Y0048082D01*
X0038982Y0048082D01*
X0039187Y0048578D01*
X0040228Y0049619D01*
X0041588Y0050182D01*
X0048260Y0050182D01*
X0049620Y0049619D01*
X0050660Y0048578D01*
X0050866Y0048082D01*
X0055706Y0048082D01*
X0056618Y0047170D01*
X0056618Y0104974D01*
X0029146Y0104974D01*
X0029827Y0104294D01*
X0031248Y0101831D01*
X0031984Y0099085D01*
X0031984Y0096241D01*
X0031248Y0093495D01*
X0029827Y0091032D01*
X0027816Y0089022D01*
X0025353Y0087600D01*
X0022607Y0086864D01*
X0019763Y0086864D01*
X0017017Y0087600D01*
X0014554Y0089022D01*
X0013874Y0089702D01*
X0013874Y0078638D01*
X0015754Y0080519D01*
X0015754Y0085324D01*
X0016399Y0085968D01*
X0022428Y0085968D01*
X0023072Y0085324D01*
X0023072Y0078507D01*
X0022428Y0077862D01*
X0017623Y0077862D01*
X0015474Y0075713D01*
X0015474Y0058078D01*
X0019111Y0054441D01*
X0020230Y0054904D01*
X0022140Y0054904D01*
X0023904Y0054173D01*
X0025254Y0052823D01*
X0025985Y0051059D01*
X0025985Y0049149D01*
X0025254Y0047385D01*
X0023904Y0046035D01*
X0022140Y0045304D01*
X0020230Y0045304D01*
X0018466Y0046035D01*
X0017116Y0047385D01*
X0016385Y0049149D01*
X0016385Y0051059D01*
X0016849Y0052178D01*
X0013874Y0055152D01*
X0013874Y0030821D01*
X0014554Y0031502D01*
X0017017Y0032923D01*
X0019763Y0033659D01*
X0022607Y0033659D01*
X0025353Y0032923D01*
X0027816Y0031502D01*
X0029827Y0029491D01*
X0031248Y0027028D01*
X0031984Y0024282D01*
X0031984Y0021438D01*
X0031248Y0018692D01*
X0029827Y0016229D01*
X0029639Y0016042D02*
X0056618Y0016042D01*
X0056618Y0017040D02*
X0053732Y0017040D01*
X0054175Y0018039D02*
X0056618Y0018039D01*
X0056618Y0019037D02*
X0054175Y0019037D01*
X0054175Y0020036D02*
X0056618Y0020036D01*
X0056618Y0021034D02*
X0054175Y0021034D01*
X0054175Y0022033D02*
X0056618Y0022033D01*
X0056618Y0023031D02*
X0054918Y0023031D01*
X0055917Y0024030D02*
X0056618Y0024030D01*
X0053388Y0026027D02*
X0031517Y0026027D01*
X0031249Y0027025D02*
X0054387Y0027025D01*
X0055385Y0028024D02*
X0030674Y0028024D01*
X0030097Y0029022D02*
X0056384Y0029022D01*
X0056618Y0030021D02*
X0029297Y0030021D01*
X0028298Y0031019D02*
X0056618Y0031019D01*
X0056618Y0032018D02*
X0026922Y0032018D01*
X0025006Y0033016D02*
X0041022Y0033016D01*
X0041588Y0032782D02*
X0040228Y0033345D01*
X0039187Y0034386D01*
X0038624Y0035746D01*
X0038624Y0037218D01*
X0039187Y0038578D01*
X0040228Y0039619D01*
X0041588Y0040182D01*
X0048260Y0040182D01*
X0049620Y0039619D01*
X0050660Y0038578D01*
X0051224Y0037218D01*
X0051224Y0035746D01*
X0050660Y0034386D01*
X0049620Y0033345D01*
X0048260Y0032782D01*
X0041588Y0032782D01*
X0039558Y0034015D02*
X0013874Y0034015D01*
X0013874Y0035013D02*
X0038927Y0035013D01*
X0038624Y0036012D02*
X0023848Y0036012D01*
X0024879Y0037010D02*
X0038624Y0037010D01*
X0038951Y0038009D02*
X0025513Y0038009D01*
X0028980Y0040104D02*
X0021185Y0040104D01*
X0016776Y0042003D02*
X0013874Y0042003D01*
X0013874Y0043001D02*
X0017294Y0043001D01*
X0018293Y0044000D02*
X0013874Y0044000D01*
X0013874Y0044998D02*
X0031612Y0044998D01*
X0030613Y0044000D02*
X0024077Y0044000D01*
X0025076Y0043001D02*
X0029615Y0043001D01*
X0028616Y0042003D02*
X0025594Y0042003D01*
X0028980Y0040104D02*
X0035358Y0046482D01*
X0047524Y0046482D01*
X0055043Y0046482D01*
X0058587Y0042939D01*
X0058587Y0028962D01*
X0050516Y0020892D01*
X0046857Y0021034D02*
X0046694Y0021034D01*
X0046694Y0020036D02*
X0046857Y0020036D01*
X0046857Y0019037D02*
X0046694Y0019037D01*
X0046694Y0018039D02*
X0046857Y0018039D01*
X0046694Y0017483D02*
X0046694Y0024300D01*
X0046050Y0024944D01*
X0040021Y0024944D01*
X0039376Y0024300D01*
X0039376Y0017483D01*
X0040021Y0016839D01*
X0046050Y0016839D01*
X0046694Y0017483D01*
X0046251Y0017040D02*
X0047300Y0017040D01*
X0039819Y0017040D02*
X0030295Y0017040D01*
X0030871Y0018039D02*
X0039376Y0018039D01*
X0039376Y0019037D02*
X0031341Y0019037D01*
X0031608Y0020036D02*
X0039376Y0020036D01*
X0039376Y0021034D02*
X0031876Y0021034D01*
X0031984Y0022033D02*
X0039376Y0022033D01*
X0039376Y0023031D02*
X0031984Y0023031D01*
X0031984Y0024030D02*
X0039376Y0024030D01*
X0046694Y0024030D02*
X0046857Y0024030D01*
X0046857Y0023031D02*
X0046694Y0023031D01*
X0046694Y0022033D02*
X0046857Y0022033D01*
X0052390Y0025028D02*
X0031784Y0025028D01*
X0017364Y0033016D02*
X0013874Y0033016D01*
X0013874Y0032018D02*
X0015448Y0032018D01*
X0014072Y0031019D02*
X0013874Y0031019D01*
X0013874Y0036012D02*
X0018522Y0036012D01*
X0017491Y0037010D02*
X0013874Y0037010D01*
X0013874Y0038009D02*
X0016857Y0038009D01*
X0016444Y0039007D02*
X0013874Y0039007D01*
X0013874Y0040006D02*
X0016385Y0040006D01*
X0016385Y0041004D02*
X0013874Y0041004D01*
X0013874Y0045997D02*
X0018558Y0045997D01*
X0017506Y0046995D02*
X0013874Y0046995D01*
X0013874Y0047994D02*
X0016864Y0047994D01*
X0016450Y0048992D02*
X0013874Y0048992D01*
X0013874Y0049991D02*
X0016385Y0049991D01*
X0016385Y0050989D02*
X0013874Y0050989D01*
X0013874Y0051988D02*
X0016770Y0051988D01*
X0016040Y0052986D02*
X0013874Y0052986D01*
X0013874Y0053985D02*
X0015041Y0053985D01*
X0014043Y0054983D02*
X0013874Y0054983D01*
X0016571Y0056981D02*
X0017027Y0056981D01*
X0017219Y0056717D02*
X0017797Y0056138D01*
X0018460Y0055657D01*
X0019189Y0055285D01*
X0019967Y0055032D01*
X0020685Y0054918D01*
X0020685Y0059604D01*
X0021685Y0059604D01*
X0021685Y0054918D01*
X0022403Y0055032D01*
X0023181Y0055285D01*
X0023910Y0055657D01*
X0024573Y0056138D01*
X0025151Y0056717D01*
X0025632Y0057379D01*
X0026004Y0058108D01*
X0026257Y0058886D01*
X0026371Y0059604D01*
X0021685Y0059604D01*
X0021685Y0060604D01*
X0026371Y0060604D01*
X0026257Y0061322D01*
X0026004Y0062100D01*
X0025632Y0062830D01*
X0025151Y0063492D01*
X0024573Y0064070D01*
X0023910Y0064552D01*
X0023181Y0064923D01*
X0022403Y0065176D01*
X0021685Y0065290D01*
X0021685Y0060604D01*
X0020685Y0060604D01*
X0020685Y0059604D01*
X0015999Y0059604D01*
X0016113Y0058886D01*
X0016366Y0058108D01*
X0016738Y0057379D01*
X0017219Y0056717D01*
X0017570Y0055982D02*
X0018012Y0055982D01*
X0018568Y0054983D02*
X0020275Y0054983D01*
X0020685Y0054983D02*
X0021685Y0054983D01*
X0022095Y0054983D02*
X0038500Y0054983D01*
X0038524Y0054908D02*
X0038817Y0054333D01*
X0039196Y0053811D01*
X0039653Y0053355D01*
X0040175Y0052975D01*
X0040750Y0052682D01*
X0041364Y0052483D01*
X0042001Y0052382D01*
X0047224Y0052382D01*
X0047224Y0056182D01*
X0047824Y0056182D01*
X0047824Y0056782D01*
X0051624Y0056782D01*
X0051624Y0056805D01*
X0051523Y0057442D01*
X0051323Y0058056D01*
X0051030Y0058631D01*
X0050651Y0059153D01*
X0050195Y0059609D01*
X0049672Y0059989D01*
X0049097Y0060282D01*
X0048484Y0060481D01*
X0047846Y0060582D01*
X0047824Y0060582D01*
X0047824Y0056782D01*
X0047224Y0056782D01*
X0047224Y0060582D01*
X0042001Y0060582D01*
X0041364Y0060481D01*
X0040750Y0060282D01*
X0040175Y0059989D01*
X0039653Y0059609D01*
X0039196Y0059153D01*
X0038817Y0058631D01*
X0038524Y0058056D01*
X0038325Y0057442D01*
X0038224Y0056805D01*
X0038224Y0056782D01*
X0047224Y0056782D01*
X0047224Y0056182D01*
X0038224Y0056182D01*
X0038224Y0056159D01*
X0038325Y0055522D01*
X0038524Y0054908D01*
X0039070Y0053985D02*
X0024092Y0053985D01*
X0025091Y0052986D02*
X0040160Y0052986D01*
X0041126Y0049991D02*
X0025985Y0049991D01*
X0025985Y0050989D02*
X0056618Y0050989D01*
X0056618Y0049991D02*
X0048721Y0049991D01*
X0050246Y0048992D02*
X0056618Y0048992D01*
X0056618Y0047994D02*
X0055794Y0047994D01*
X0055263Y0044000D02*
X0050274Y0044000D01*
X0048789Y0043001D02*
X0056261Y0043001D01*
X0056618Y0042003D02*
X0033142Y0042003D01*
X0034140Y0043001D02*
X0041058Y0043001D01*
X0039573Y0044000D02*
X0035139Y0044000D01*
X0032610Y0045997D02*
X0023812Y0045997D01*
X0024865Y0046995D02*
X0033609Y0046995D01*
X0034607Y0047994D02*
X0025506Y0047994D01*
X0025920Y0048992D02*
X0039601Y0048992D01*
X0047224Y0052986D02*
X0047824Y0052986D01*
X0047824Y0052382D02*
X0047846Y0052382D01*
X0048484Y0052483D01*
X0049097Y0052682D01*
X0049672Y0052975D01*
X0050195Y0053355D01*
X0050651Y0053811D01*
X0051030Y0054333D01*
X0051323Y0054908D01*
X0051523Y0055522D01*
X0051624Y0056159D01*
X0051624Y0056182D01*
X0047824Y0056182D01*
X0047824Y0052382D01*
X0047824Y0053985D02*
X0047224Y0053985D01*
X0047224Y0054983D02*
X0047824Y0054983D01*
X0047824Y0055982D02*
X0047224Y0055982D01*
X0047224Y0056981D02*
X0047824Y0056981D01*
X0047824Y0057979D02*
X0047224Y0057979D01*
X0047224Y0058978D02*
X0047824Y0058978D01*
X0047824Y0059976D02*
X0047224Y0059976D01*
X0049690Y0059976D02*
X0056618Y0059976D01*
X0056618Y0058978D02*
X0050778Y0058978D01*
X0051348Y0057979D02*
X0056618Y0057979D01*
X0056618Y0056981D02*
X0051596Y0056981D01*
X0051596Y0055982D02*
X0056618Y0055982D01*
X0056618Y0054983D02*
X0051348Y0054983D01*
X0050777Y0053985D02*
X0056618Y0053985D01*
X0056618Y0052986D02*
X0049688Y0052986D01*
X0056618Y0051988D02*
X0025600Y0051988D01*
X0021185Y0050104D02*
X0013874Y0057415D01*
X0013874Y0076376D01*
X0019413Y0081915D01*
X0015754Y0081943D02*
X0013874Y0081943D01*
X0013874Y0080945D02*
X0015754Y0080945D01*
X0015182Y0079946D02*
X0013874Y0079946D01*
X0013874Y0078948D02*
X0014183Y0078948D01*
X0016712Y0076951D02*
X0040158Y0076951D01*
X0040228Y0077020D02*
X0039187Y0075980D01*
X0038624Y0074620D01*
X0038624Y0073148D01*
X0039187Y0071788D01*
X0040228Y0070747D01*
X0041588Y0070184D01*
X0048260Y0070184D01*
X0049620Y0070747D01*
X0050660Y0071788D01*
X0051224Y0073148D01*
X0051224Y0074620D01*
X0050660Y0075980D01*
X0049620Y0077020D01*
X0048260Y0077584D01*
X0041588Y0077584D01*
X0040228Y0077020D01*
X0039176Y0075952D02*
X0015713Y0075952D01*
X0015474Y0074954D02*
X0038762Y0074954D01*
X0038624Y0073955D02*
X0025985Y0073955D01*
X0025985Y0074260D02*
X0025341Y0074904D01*
X0017029Y0074904D01*
X0016385Y0074260D01*
X0016385Y0065948D01*
X0017029Y0065304D01*
X0025341Y0065304D01*
X0025985Y0065948D01*
X0025985Y0074260D01*
X0025985Y0072957D02*
X0038703Y0072957D01*
X0039116Y0071958D02*
X0025985Y0071958D01*
X0025985Y0070960D02*
X0040015Y0070960D01*
X0049832Y0070960D02*
X0056618Y0070960D01*
X0056618Y0071958D02*
X0050731Y0071958D01*
X0051145Y0072957D02*
X0056618Y0072957D01*
X0056618Y0073955D02*
X0051224Y0073955D01*
X0051085Y0074954D02*
X0056618Y0074954D01*
X0056618Y0075952D02*
X0050672Y0075952D01*
X0049689Y0076951D02*
X0056618Y0076951D01*
X0056618Y0077949D02*
X0029995Y0077949D01*
X0029908Y0077862D02*
X0030553Y0078507D01*
X0030553Y0083311D01*
X0039141Y0091899D01*
X0039187Y0091788D01*
X0040228Y0090747D01*
X0041588Y0090184D01*
X0048260Y0090184D01*
X0049620Y0090747D01*
X0050660Y0091788D01*
X0051224Y0093148D01*
X0051224Y0094620D01*
X0050660Y0095980D01*
X0049620Y0097020D01*
X0048260Y0097584D01*
X0041588Y0097584D01*
X0040228Y0097020D01*
X0039187Y0095980D01*
X0038982Y0095484D01*
X0038199Y0095484D01*
X0037262Y0094546D01*
X0028684Y0085968D01*
X0023879Y0085968D01*
X0023235Y0085324D01*
X0023235Y0078507D01*
X0023879Y0077862D01*
X0029908Y0077862D01*
X0030553Y0078948D02*
X0056618Y0078948D01*
X0056618Y0079946D02*
X0048674Y0079946D01*
X0048484Y0079885D02*
X0049097Y0080084D01*
X0049672Y0080377D01*
X0050195Y0080756D01*
X0050651Y0081213D01*
X0051030Y0081735D01*
X0051323Y0082310D01*
X0051523Y0082924D01*
X0051624Y0083561D01*
X0051624Y0083584D01*
X0047824Y0083584D01*
X0047824Y0084184D01*
X0047224Y0084184D01*
X0047224Y0087984D01*
X0042001Y0087984D01*
X0041364Y0087883D01*
X0040750Y0087683D01*
X0040175Y0087390D01*
X0039653Y0087011D01*
X0039196Y0086555D01*
X0038817Y0086032D01*
X0038524Y0085457D01*
X0038325Y0084844D01*
X0038224Y0084206D01*
X0038224Y0084184D01*
X0047224Y0084184D01*
X0047224Y0083584D01*
X0047824Y0083584D01*
X0047824Y0079784D01*
X0047846Y0079784D01*
X0048484Y0079885D01*
X0047824Y0079946D02*
X0047224Y0079946D01*
X0047224Y0079784D02*
X0047224Y0083584D01*
X0038224Y0083584D01*
X0038224Y0083561D01*
X0038325Y0082924D01*
X0038524Y0082310D01*
X0038817Y0081735D01*
X0039196Y0081213D01*
X0039653Y0080756D01*
X0040175Y0080377D01*
X0040750Y0080084D01*
X0041364Y0079885D01*
X0042001Y0079784D01*
X0047224Y0079784D01*
X0047224Y0080945D02*
X0047824Y0080945D01*
X0047824Y0081943D02*
X0047224Y0081943D01*
X0047224Y0082942D02*
X0047824Y0082942D01*
X0047824Y0083940D02*
X0056618Y0083940D01*
X0056618Y0082942D02*
X0051526Y0082942D01*
X0051136Y0081943D02*
X0056618Y0081943D01*
X0056618Y0080945D02*
X0050383Y0080945D01*
X0051624Y0084184D02*
X0047824Y0084184D01*
X0047824Y0087984D01*
X0047846Y0087984D01*
X0048484Y0087883D01*
X0049097Y0087683D01*
X0049672Y0087390D01*
X0050195Y0087011D01*
X0050651Y0086555D01*
X0051030Y0086032D01*
X0051323Y0085457D01*
X0051523Y0084844D01*
X0051624Y0084206D01*
X0051624Y0084184D01*
X0051492Y0084939D02*
X0056618Y0084939D01*
X0056618Y0085937D02*
X0051079Y0085937D01*
X0050270Y0086936D02*
X0056618Y0086936D01*
X0056618Y0087934D02*
X0048157Y0087934D01*
X0047824Y0087934D02*
X0047224Y0087934D01*
X0047224Y0086936D02*
X0047824Y0086936D01*
X0047824Y0085937D02*
X0047224Y0085937D01*
X0047224Y0084939D02*
X0047824Y0084939D01*
X0047224Y0083940D02*
X0031182Y0083940D01*
X0030553Y0082942D02*
X0038322Y0082942D01*
X0038711Y0081943D02*
X0030553Y0081943D01*
X0030553Y0080945D02*
X0039464Y0080945D01*
X0041174Y0079946D02*
X0030553Y0079946D01*
X0026894Y0081915D02*
X0038862Y0093884D01*
X0047524Y0093884D01*
X0051224Y0093925D02*
X0056618Y0093925D01*
X0056618Y0092927D02*
X0051132Y0092927D01*
X0050719Y0091928D02*
X0056618Y0091928D01*
X0056618Y0090930D02*
X0049802Y0090930D01*
X0056618Y0089931D02*
X0037173Y0089931D01*
X0036174Y0088933D02*
X0056618Y0088933D01*
X0056618Y0094924D02*
X0051098Y0094924D01*
X0050684Y0095922D02*
X0056618Y0095922D01*
X0056618Y0096921D02*
X0049719Y0096921D01*
X0056618Y0097919D02*
X0031984Y0097919D01*
X0031984Y0096921D02*
X0040128Y0096921D01*
X0039163Y0095922D02*
X0031899Y0095922D01*
X0031631Y0094924D02*
X0037640Y0094924D01*
X0036641Y0093925D02*
X0031364Y0093925D01*
X0030920Y0092927D02*
X0035643Y0092927D01*
X0034644Y0091928D02*
X0030344Y0091928D01*
X0029724Y0090930D02*
X0033646Y0090930D01*
X0032647Y0089931D02*
X0028726Y0089931D01*
X0027662Y0088933D02*
X0031649Y0088933D01*
X0030650Y0087934D02*
X0025933Y0087934D01*
X0023848Y0085937D02*
X0022459Y0085937D01*
X0022875Y0086936D02*
X0029652Y0086936D01*
X0033179Y0085937D02*
X0038769Y0085937D01*
X0038355Y0084939D02*
X0032180Y0084939D01*
X0034177Y0086936D02*
X0039578Y0086936D01*
X0041690Y0087934D02*
X0035176Y0087934D01*
X0038171Y0090930D02*
X0040045Y0090930D01*
X0031984Y0098918D02*
X0056618Y0098918D01*
X0056618Y0099916D02*
X0031761Y0099916D01*
X0031494Y0100915D02*
X0056618Y0100915D01*
X0056618Y0101914D02*
X0031201Y0101914D01*
X0030624Y0102912D02*
X0056618Y0102912D01*
X0056618Y0103911D02*
X0030048Y0103911D01*
X0029212Y0104909D02*
X0056618Y0104909D01*
X0019495Y0086936D02*
X0013874Y0086936D01*
X0013874Y0087934D02*
X0016437Y0087934D01*
X0014708Y0088933D02*
X0013874Y0088933D01*
X0013874Y0085937D02*
X0016368Y0085937D01*
X0015754Y0084939D02*
X0013874Y0084939D01*
X0013874Y0083940D02*
X0015754Y0083940D01*
X0015754Y0082942D02*
X0013874Y0082942D01*
X0023072Y0082942D02*
X0023235Y0082942D01*
X0023235Y0083940D02*
X0023072Y0083940D01*
X0023072Y0084939D02*
X0023235Y0084939D01*
X0023235Y0081943D02*
X0023072Y0081943D01*
X0023072Y0080945D02*
X0023235Y0080945D01*
X0023235Y0079946D02*
X0023072Y0079946D01*
X0023072Y0078948D02*
X0023235Y0078948D01*
X0023792Y0077949D02*
X0022515Y0077949D01*
X0016385Y0073955D02*
X0015474Y0073955D01*
X0015474Y0072957D02*
X0016385Y0072957D01*
X0016385Y0071958D02*
X0015474Y0071958D01*
X0015474Y0070960D02*
X0016385Y0070960D01*
X0016385Y0069961D02*
X0015474Y0069961D01*
X0015474Y0068963D02*
X0016385Y0068963D01*
X0016385Y0067964D02*
X0015474Y0067964D01*
X0015474Y0066966D02*
X0016385Y0066966D01*
X0016385Y0065967D02*
X0015474Y0065967D01*
X0015474Y0064969D02*
X0019329Y0064969D01*
X0019189Y0064923D02*
X0018460Y0064552D01*
X0017797Y0064070D01*
X0017219Y0063492D01*
X0016738Y0062830D01*
X0016366Y0062100D01*
X0016113Y0061322D01*
X0015999Y0060604D01*
X0020685Y0060604D01*
X0020685Y0065290D01*
X0019967Y0065176D01*
X0019189Y0064923D01*
X0020685Y0064969D02*
X0021685Y0064969D01*
X0021685Y0063970D02*
X0020685Y0063970D01*
X0020685Y0062972D02*
X0021685Y0062972D01*
X0021685Y0061973D02*
X0020685Y0061973D01*
X0020685Y0060975D02*
X0021685Y0060975D01*
X0021685Y0059976D02*
X0040157Y0059976D01*
X0039069Y0058978D02*
X0026271Y0058978D01*
X0025938Y0057979D02*
X0038499Y0057979D01*
X0038251Y0056981D02*
X0025343Y0056981D01*
X0024358Y0055982D02*
X0038252Y0055982D01*
X0026312Y0060975D02*
X0056618Y0060975D01*
X0056618Y0061973D02*
X0026045Y0061973D01*
X0025529Y0062972D02*
X0056618Y0062972D01*
X0056618Y0063970D02*
X0024673Y0063970D01*
X0023041Y0064969D02*
X0056618Y0064969D01*
X0056618Y0065967D02*
X0025985Y0065967D01*
X0025985Y0066966D02*
X0056618Y0066966D01*
X0056618Y0067964D02*
X0025985Y0067964D01*
X0025985Y0068963D02*
X0056618Y0068963D01*
X0056618Y0069961D02*
X0025985Y0069961D01*
X0017697Y0063970D02*
X0015474Y0063970D01*
X0015474Y0062972D02*
X0016841Y0062972D01*
X0016325Y0061973D02*
X0015474Y0061973D01*
X0015474Y0060975D02*
X0016058Y0060975D01*
X0015474Y0059976D02*
X0020685Y0059976D01*
X0020685Y0058978D02*
X0021685Y0058978D01*
X0021685Y0057979D02*
X0020685Y0057979D01*
X0020685Y0056981D02*
X0021685Y0056981D01*
X0021685Y0055982D02*
X0020685Y0055982D01*
X0016432Y0057979D02*
X0015573Y0057979D01*
X0015474Y0058978D02*
X0016099Y0058978D01*
X0032143Y0041004D02*
X0056618Y0041004D01*
X0056618Y0040006D02*
X0048685Y0040006D01*
X0050231Y0039007D02*
X0056618Y0039007D01*
X0056618Y0038009D02*
X0050896Y0038009D01*
X0051224Y0037010D02*
X0056618Y0037010D01*
X0056618Y0036012D02*
X0051224Y0036012D01*
X0050920Y0035013D02*
X0056618Y0035013D01*
X0056618Y0034015D02*
X0050289Y0034015D01*
X0048825Y0033016D02*
X0056618Y0033016D01*
X0041162Y0040006D02*
X0031145Y0040006D01*
X0030146Y0039007D02*
X0039616Y0039007D01*
D24*
X0043035Y0020892D03*
D25*
X0074531Y0020892D02*
X0074531Y0033490D01*
X0077524Y0036482D01*
X0094413Y0034671D02*
X0094413Y0027191D01*
X0108452Y0027191D01*
X0121995Y0040734D01*
X0135752Y0040577D02*
X0116067Y0060262D01*
X0100713Y0060262D01*
X0095594Y0055143D01*
X0092051Y0051600D01*
X0092051Y0045301D01*
X0105437Y0042939D02*
X0107799Y0045301D01*
X0107799Y0051600D01*
X0104256Y0055143D01*
X0099925Y0065380D02*
X0098744Y0066561D01*
X0073154Y0066561D01*
X0066067Y0059474D01*
X0066067Y0049632D01*
X0069217Y0046482D01*
X0077524Y0046482D01*
X0105437Y0042939D02*
X0105437Y0034671D01*
X0094413Y0027191D02*
X0094413Y0022663D01*
X0096185Y0020892D01*
X0082012Y0020892D01*
X0103665Y0020892D02*
X0103823Y0020734D01*
X0121995Y0020734D01*
X0131657Y0020734D01*
X0135752Y0024829D01*
X0135752Y0040577D01*
X0156595Y0040734D02*
X0164335Y0040734D01*
X0168823Y0036246D01*
X0177484Y0036246D01*
X0182996Y0030734D01*
X0176697Y0025222D02*
X0168823Y0025222D01*
X0161083Y0025222D01*
X0156595Y0020734D01*
X0176697Y0025222D02*
X0182996Y0018923D01*
X0194020Y0018923D02*
X0212130Y0018923D01*
X0215204Y0015849D01*
X0237327Y0015849D01*
X0240794Y0019317D01*
X0240794Y0040652D01*
X0236933Y0044514D01*
X0229846Y0044514D01*
X0214098Y0032703D02*
X0195988Y0032703D01*
X0194020Y0030734D01*
X0194020Y0042545D02*
X0182996Y0053569D01*
X0182996Y0054356D01*
X0194020Y0054356D02*
X0194020Y0067348D01*
X0175122Y0042545D02*
X0162524Y0055143D01*
X0129059Y0055143D01*
X0110319Y0073884D01*
X0077524Y0073884D01*
X0077524Y0093884D02*
X0098980Y0093884D01*
X0120949Y0071915D01*
X0131264Y0071915D01*
X0175122Y0042545D02*
X0182996Y0042545D01*
D26*
X0203075Y0067348D02*
X0214098Y0056325D01*
X0214098Y0032703D01*
X0221972Y0024829D01*
X0229846Y0024829D01*
X0203075Y0067348D02*
X0194020Y0067348D01*
X0172760Y0067348D01*
X0158193Y0081915D01*
X0131264Y0081915D01*
X0131264Y0091915D02*
X0162760Y0091915D01*
X0178665Y0076010D01*
X0229846Y0076010D01*
M02*
